Antonio-Light.ufo
<glyph name="exclam" format="1">
  <advance width="540"/>
  <unicode hex="0021"/>
  <outline>
    <contour>
      <point x="176" y="1760" type="line"/>
      <point x="364" y="1760" type="line"/>
      <point x="299" y="368" type="line"/>
      <point x="239" y="368" type="line"/>
    </contour>
    <contour>
      <point x="175" y="202" type="line"/>
      <point x="361" y="202" type="line"/>
      <point x="361" y="0" type="line"/>
      <point x="175" y="0" type="line"/>
    </contour>
  </outline>
</glyph>
<glyph name="quotedbl" format="1">
  <advance width="944"/>
  <unicode hex="0022"/>
  <outline>
    <contour>
      <point x="535" y="1761" type="line"/>
      <point x="692" y="1761" type="line"/>
      <point x="627" y="1125" type="line"/>
      <point x="593" y="1125" type="line"/>
    </contour>
    <contour>
      <point x="267" y="1761" type="line"/>
      <point x="423" y="1761" type="line"/>
      <point x="359" y="1125" type="line"/>
      <point x="325" y="1125" type="line"/>
    </contour>
  </outline>
</glyph>
<glyph name="dollar" format="1">
  <advance width="860"/>
  <unicode hex="0024"/>
  <outline>
    <component base="s" yOffset="-2"/>
    <contour>
      <point x="327" y="1760" type="line"/>
      <point x="434" y="1760" type="line"/>
      <point x="434" y="1468" type="line"/>
      <point x="327" y="1468" type="line"/>
    </contour>
    <contour>
      <point x="348" y="17" type="line"/>
      <point x="455" y="17" type="line"/>
      <point x="455" y="-271" type="line"/>
      <point x="348" y="-271" type="line"/>
    </contour>
  </outline>
</glyph>
<glyph name="ampersand" format="1">
  <advance width="915"/>
  <unicode hex="0026"/>
  <outline>
    <contour>
      <point x="619" y="376" type="curve"/>
      <point x="551" y="513"/>
      <point x="474" y="668"/>
      <point x="404" y="817" type="curve"/>
      <point x="308" y="689"/>
      <point x="225" y="551"/>
      <point x="213" y="374" type="curve" smooth="yes"/>
      <point x="202" y="220"/>
      <point x="242" y="105"/>
      <point x="382" y="105" type="curve" smooth="yes"/>
      <point x="499" y="105"/>
      <point x="551" y="220"/>
    </contour>
    <contour>
      <point x="751" y="365" type="curve"/>
      <point x="818" y="225"/>
      <point x="880" y="98"/>
      <point x="923" y="0" type="curve"/>
      <point x="799" y="0" type="line"/>
      <point x="777" y="53"/>
      <point x="739" y="132"/>
      <point x="693" y="226" type="curve"/>
      <point x="629" y="83"/>
      <point x="551" y="-20"/>
      <point x="364" y="-20" type="curve" smooth="yes"/>
      <point x="192" y="-20"/>
      <point x="60" y="96"/>
      <point x="60" y="353" type="curve" smooth="yes"/>
      <point x="60" y="632"/>
      <point x="204" y="794"/>
      <point x="343" y="950" type="curve"/>
      <point x="248" y="1163"/>
      <point x="176" y="1350"/>
      <point x="176" y="1443" type="curve" smooth="yes"/>
      <point x="176" y="1670"/>
      <point x="273" y="1782"/>
      <point x="462" y="1782" type="curve" smooth="yes"/>
      <point x="691" y="1782"/>
      <point x="734" y="1654"/>
      <point x="734" y="1434" type="curve" smooth="yes"/>
      <point x="734" y="1232"/>
      <point x="615" y="1080"/>
      <point x="490" y="925" type="curve"/>
      <point x="548" y="792"/>
      <point x="615" y="650"/>
      <point x="681" y="513" type="curve"/>
      <point x="725" y="605"/>
      <point x="780" y="704"/>
      <point x="859" y="797" type="curve"/>
      <point x="928" y="690" type="line"/>
      <point x="844" y="585"/>
      <point x="794" y="470"/>
    </contour>
    <contour>
      <point x="434" y="1057" type="curve"/>
      <point x="523" y="1168"/>
      <point x="594" y="1287"/>
      <point x="594" y="1452" type="curve" smooth="yes"/>
      <point x="594" y="1590"/>
      <point x="578" y="1663"/>
      <point x="463" y="1663" type="curve" smooth="yes"/>
      <point x="306" y="1663"/>
      <point x="322" y="1515"/>
      <point x="322" y="1441" type="curve" smooth="yes"/>
      <point x="322" y="1361"/>
      <point x="367" y="1222"/>
    </contour>
  </outline>
</glyph>
<glyph name="quotesingle" format="1">
  <advance width="404"/>
  <unicode hex="0027"/>
  <outline>
    <contour>
      <point x="124" y="1761" type="line"/>
      <point x="282" y="1761" type="line"/>
      <point x="217" y="1125" type="line"/>
      <point x="184" y="1125" type="line"/>
    </contour>
  </outline>
</glyph>
<glyph name="parenleft" format="1">
  <advance width="546"/>
  <unicode hex="0028"/>
  <outline>
    <contour>
      <point x="160" y="1370" type="line" smooth="yes"/>
      <point x="160" y="1733"/>
      <point x="211" y="1782"/>
      <point x="448" y="1782" type="curve"/>
      <point x="448" y="1669" type="line"/>
      <point x="328" y="1669"/>
      <point x="309" y="1677"/>
      <point x="309" y="1374" type="curve" smooth="yes"/>
      <point x="309" y="291" type="line" smooth="yes"/>
      <point x="309" y="-12"/>
      <point x="328" y="-4"/>
      <point x="448" y="-4" type="curve"/>
      <point x="448" y="-117" type="line"/>
      <point x="211" y="-117"/>
      <point x="160" y="-68"/>
      <point x="160" y="295" type="curve" smooth="yes"/>
    </contour>
  </outline>
</glyph>
<glyph name="parenright" format="1">
  <advance width="546"/>
  <unicode hex="0029"/>
  <outline>
    <contour>
      <point x="98" y="1669" type="curve"/>
      <point x="98" y="1782" type="line"/>
      <point x="335" y="1782"/>
      <point x="386" y="1733"/>
      <point x="386" y="1370" type="curve" smooth="yes"/>
      <point x="386" y="293" type="line" smooth="yes"/>
      <point x="386" y="-70"/>
      <point x="335" y="-119"/>
      <point x="98" y="-119" type="curve"/>
      <point x="98" y="-6" type="line"/>
      <point x="218" y="-6"/>
      <point x="237" y="-14"/>
      <point x="237" y="289" type="curve" smooth="yes"/>
      <point x="237" y="1374" type="line" smooth="yes"/>
      <point x="237" y="1677"/>
      <point x="218" y="1669"/>
    </contour>
  </outline>
</glyph>
<glyph name="plus" format="1">
  <advance width="766"/>
  <unicode hex="002B"/>
  <outline>
    <contour>
      <point x="322" y="1208" type="line"/>
      <point x="440" y="1208" type="line"/>
      <point x="440" y="948" type="line"/>
      <point x="674" y="948" type="line"/>
      <point x="674" y="842" type="line"/>
      <point x="440" y="842" type="line"/>
      <point x="440" y="576" type="line"/>
      <point x="322" y="576" type="line"/>
      <point x="322" y="842" type="line"/>
      <point x="92" y="842" type="line"/>
      <point x="92" y="948" type="line"/>
      <point x="322" y="948" type="line"/>
    </contour>
  </outline>
</glyph>
<glyph name="comma" format="1">
  <advance width="437"/>
  <unicode hex="002C"/>
  <outline>
    <contour>
      <point x="151" y="173" type="line"/>
      <point x="351" y="173" type="line"/>
      <point x="351" y="9" type="line"/>
      <point x="247" y="-350" type="line"/>
      <point x="170" y="-350" type="line"/>
      <point x="266" y="0" type="line"/>
      <point x="151" y="0" type="line"/>
    </contour>
  </outline>
</glyph>
<glyph name="hyphen" format="1">
  <advance width="696"/>
  <unicode hex="002D"/>
  <outline>
    <contour>
      <point x="88" y="958" type="line"/>
      <point x="516" y="958" type="line"/>
      <point x="516" y="858" type="line"/>
      <point x="88" y="858" type="line"/>
    </contour>
  </outline>
</glyph>
<glyph name="slash" format="1">
  <advance width="743"/>
  <unicode hex="002F"/>
  <outline>
    <contour>
      <point x="538" y="1768" type="line"/>
      <point x="673" y="1768" type="line"/>
      <point x="222" y="0" type="line"/>
      <point x="88" y="0" type="line"/>
    </contour>
  </outline>
</glyph>
<glyph name="one" format="1">
  <advance width="830"/>
  <unicode hex="0031"/>
  <outline>
    <contour>
      <point x="469" y="1761" type="curve"/>
      <point x="558" y="1761" type="line"/>
      <point x="558" y="0" type="line"/>
      <point x="409" y="0" type="line"/>
      <point x="409" y="1534" type="line"/>
      <point x="361" y="1477"/>
      <point x="225" y="1428"/>
      <point x="151" y="1428" type="curve"/>
      <point x="151" y="1521" type="line"/>
      <point x="257" y="1536"/>
      <point x="413" y="1629"/>
    </contour>
  </outline>
</glyph>
<glyph name="two" format="1">
  <advance width="830"/>
  <unicode hex="0032"/>
  <outline>
    <contour>
      <point x="176" y="1323" type="line" smooth="yes"/>
      <point x="176" y="1657"/>
      <point x="263" y="1785"/>
      <point x="467" y="1782" type="curve" smooth="yes"/>
      <point x="644" y="1779"/>
      <point x="718" y="1639"/>
      <point x="718" y="1310" type="curve" smooth="yes"/>
      <point x="718" y="1041"/>
      <point x="670" y="882"/>
      <point x="572" y="669" type="curve" smooth="yes"/>
      <point x="321" y="121" type="line"/>
      <point x="694" y="121" type="line"/>
      <point x="694" y="0" type="line"/>
      <point x="179" y="0" type="line"/>
      <point x="179" y="121" type="line"/>
      <point x="456" y="729" type="line" smooth="yes"/>
      <point x="570" y="978"/>
      <point x="579" y="1085"/>
      <point x="579" y="1305" type="curve" smooth="yes"/>
      <point x="579" y="1600"/>
      <point x="550" y="1658"/>
      <point x="450" y="1656" type="curve" smooth="yes"/>
      <point x="361" y="1654"/>
      <point x="317" y="1568"/>
      <point x="317" y="1319" type="curve" smooth="yes"/>
      <point x="317" y="1065" type="line"/>
      <point x="176" y="1065" type="line"/>
    </contour>
  </outline>
</glyph>
<glyph name="four" format="1">
  <advance width="746"/>
  <unicode hex="0034"/>
  <outline>
    <contour>
      <point x="445" y="1761" type="line"/>
      <point x="589" y="1761" type="line"/>
      <point x="589" y="468" type="line"/>
      <point x="743" y="468" type="line"/>
      <point x="743" y="352" type="line"/>
      <point x="589" y="352" type="line"/>
      <point x="589" y="-1" type="line"/>
      <point x="449" y="-1" type="line"/>
      <point x="449" y="352" type="line"/>
      <point x="51" y="352" type="line"/>
      <point x="51" y="449" type="line"/>
    </contour>
    <contour>
      <point x="449" y="468" type="line"/>
      <point x="449" y="1428" type="line"/>
      <point x="186" y="468" type="line"/>
    </contour>
  </outline>
</glyph>
<glyph name="five" format="1">
  <advance width="830"/>
  <unicode hex="0035"/>
  <outline>
    <contour>
      <point x="188" y="1760" type="line"/>
      <point x="648" y="1760" type="line"/>
      <point x="648" y="1624" type="line"/>
      <point x="323" y="1624" type="line"/>
      <point x="323" y="1126" type="line"/>
      <point x="342" y="1186"/>
      <point x="406" y="1218"/>
      <point x="459" y="1221" type="curve" smooth="yes"/>
      <point x="592" y="1229"/>
      <point x="686" y="1179"/>
      <point x="686" y="828" type="curve" smooth="yes"/>
      <point x="686" y="321" type="line" smooth="yes"/>
      <point x="686" y="115"/>
      <point x="627" y="-20"/>
      <point x="430" y="-20" type="curve" smooth="yes"/>
      <point x="209" y="-20"/>
      <point x="164" y="131"/>
      <point x="164" y="291" type="curve" smooth="yes"/>
      <point x="164" y="459" type="line"/>
      <point x="307" y="459" type="line"/>
      <point x="307" y="263" type="line" smooth="yes"/>
      <point x="307" y="151"/>
      <point x="341" y="102"/>
      <point x="426" y="102" type="curve" smooth="yes"/>
      <point x="502" y="102"/>
      <point x="545" y="145"/>
      <point x="545" y="274" type="curve" smooth="yes"/>
      <point x="545" y="869" type="line" smooth="yes"/>
      <point x="545" y="1021"/>
      <point x="516" y="1091"/>
      <point x="433" y="1091" type="curve" smooth="yes"/>
      <point x="366" y="1091"/>
      <point x="312" y="1028"/>
      <point x="312" y="888" type="curve"/>
      <point x="188" y="910" type="line"/>
    </contour>
  </outline>
</glyph>
<glyph name="six" format="1">
  <advance width="746"/>
  <unicode hex="0036"/>
  <outline>
    <contour>
      <point x="85" y="1264" type="line" smooth="yes"/>
      <point x="85" y="1620"/>
      <point x="134" y="1780"/>
      <point x="389" y="1780" type="curve" smooth="yes"/>
      <point x="626" y="1780"/>
      <point x="656" y="1619"/>
      <point x="660" y="1284" type="curve" smooth="yes"/>
      <point x="660" y="1252" type="line"/>
      <point x="508" y="1252" type="line"/>
      <point x="508" y="1283" type="line" smooth="yes"/>
      <point x="507" y="1574"/>
      <point x="498" y="1655"/>
      <point x="382" y="1655" type="curve" smooth="yes"/>
      <point x="250" y="1655"/>
      <point x="233" y="1574"/>
      <point x="233" y="1255" type="curve" smooth="yes"/>
      <point x="233" y="1013" type="line"/>
      <point x="276" y="1071"/>
      <point x="332" y="1099"/>
      <point x="390" y="1102" type="curve" smooth="yes"/>
      <point x="625" y="1113"/>
      <point x="694" y="960"/>
      <point x="694" y="559" type="curve" smooth="yes"/>
      <point x="694" y="442" type="line" smooth="yes"/>
      <point x="694" y="145"/>
      <point x="633" y="-20"/>
      <point x="391" y="-20" type="curve" smooth="yes"/>
      <point x="118" y="-20"/>
      <point x="85" y="210"/>
      <point x="85" y="506" type="curve" smooth="yes"/>
    </contour>
    <contour>
      <point x="544" y="547" type="line" smooth="yes"/>
      <point x="544" y="870"/>
      <point x="520" y="978"/>
      <point x="402" y="978" type="curve" smooth="yes"/>
      <point x="308" y="978"/>
      <point x="252" y="931"/>
      <point x="233" y="926" type="curve"/>
      <point x="233" y="504" type="line" smooth="yes"/>
      <point x="233" y="226"/>
      <point x="241" y="107"/>
      <point x="391" y="107" type="curve" smooth="yes"/>
      <point x="513" y="107"/>
      <point x="544" y="170"/>
      <point x="544" y="446" type="curve" smooth="yes"/>
    </contour>
  </outline>
</glyph>
<glyph name="seven" format="1">
  <advance width="746"/>
  <unicode hex="0037"/>
  <outline>
    <contour>
      <point x="56" y="1761" type="line"/>
      <point x="689" y="1761" type="line"/>
      <point x="689" y="1654" type="line"/>
      <point x="687" y="1663"/>
      <point x="620" y="1476"/>
      <point x="543" y="1175" type="curve" smooth="yes"/>
      <point x="467" y="874"/>
      <point x="381" y="454"/>
      <point x="352" y="1" type="curve"/>
      <point x="197" y="1" type="line"/>
      <point x="235" y="477"/>
      <point x="319" y="886"/>
      <point x="395" y="1165" type="curve"/>
      <point x="483" y="1472"/>
      <point x="559" y="1644"/>
      <point x="559" y="1644" type="curve"/>
      <point x="56" y="1644" type="line"/>
    </contour>
  </outline>
</glyph>
<glyph name="eight" format="1">
  <advance width="746"/>
  <unicode hex="0038"/>
  <outline>
    <contour>
      <point x="89" y="1347" type="curve" smooth="yes"/>
      <point x="89" y="1650"/>
      <point x="178" y="1780"/>
      <point x="385" y="1780" type="curve" smooth="yes"/>
      <point x="590" y="1780"/>
      <point x="678" y="1650"/>
      <point x="678" y="1347" type="curve" smooth="yes"/>
      <point x="678" y="1126"/>
      <point x="634" y="1001"/>
      <point x="532" y="931" type="curve"/>
      <point x="637" y="855"/>
      <point x="682" y="706"/>
      <point x="682" y="434" type="curve" smooth="yes"/>
      <point x="682" y="413" type="line" smooth="yes"/>
      <point x="675" y="110"/>
      <point x="585" y="-20"/>
      <point x="382" y="-20" type="curve" smooth="yes"/>
      <point x="174" y="-20"/>
      <point x="81" y="107"/>
      <point x="72" y="403" type="curve" smooth="yes"/>
      <point x="72" y="420"/>
      <point x="71" y="417"/>
      <point x="71" y="434" type="curve" smooth="yes"/>
      <point x="71" y="705"/>
      <point x="117" y="853"/>
      <point x="226" y="927" type="curve"/>
      <point x="130" y="995"/>
      <point x="89" y="1121"/>
    </contour>
    <contour>
      <point x="384" y="869" type="curve" smooth="yes"/>
      <point x="269" y="869"/>
      <point x="220" y="737"/>
      <point x="220" y="428" type="curve"/>
      <point x="222" y="200"/>
      <point x="271" y="103"/>
      <point x="384" y="103" type="curve" smooth="yes"/>
      <point x="488" y="103"/>
      <point x="533" y="204"/>
      <point x="534" y="439" type="curve"/>
      <point x="533" y="740"/>
      <point x="488" y="869"/>
    </contour>
    <contour>
      <point x="529" y="1353" type="curve" smooth="yes"/>
      <point x="529" y="1563"/>
      <point x="485" y="1653"/>
      <point x="382" y="1653" type="curve" smooth="yes"/>
      <point x="281" y="1653"/>
      <point x="238" y="1562"/>
      <point x="238" y="1348" type="curve" smooth="yes"/>
      <point x="238" y="1092"/>
      <point x="281" y="982"/>
      <point x="382" y="982" type="curve" smooth="yes"/>
      <point x="485" y="982"/>
      <point x="529" y="1093"/>
    </contour>
  </outline>
</glyph>
<glyph name="nine" format="1">
  <advance width="830"/>
  <unicode hex="0039"/>
  <outline>
    <contour>
      <point x="109" y="1252" type="line" smooth="yes"/>
      <point x="109" y="1549"/>
      <point x="126" y="1782"/>
      <point x="402" y="1782" type="curve" smooth="yes"/>
      <point x="675" y="1782"/>
      <point x="694" y="1548"/>
      <point x="694" y="1254" type="curve" smooth="yes"/>
      <point x="694" y="542" type="line" smooth="yes"/>
      <point x="694" y="186"/>
      <point x="674" y="-20"/>
      <point x="418" y="-20" type="curve" smooth="yes"/>
      <point x="200" y="-20"/>
      <point x="155" y="140"/>
      <point x="150" y="473" type="curve" smooth="yes"/>
      <point x="149" y="489"/>
      <point x="149" y="491"/>
      <point x="149" y="508" type="curve"/>
      <point x="292" y="508" type="line"/>
      <point x="292" y="483" type="line" smooth="yes"/>
      <point x="294" y="157"/>
      <point x="311" y="103"/>
      <point x="431" y="103" type="curve" smooth="yes"/>
      <point x="558" y="103"/>
      <point x="544" y="226"/>
      <point x="544" y="523" type="curve" smooth="yes"/>
      <point x="544" y="712" type="line"/>
      <point x="509" y="678"/>
      <point x="453" y="662"/>
      <point x="394" y="662" type="curve" smooth="yes"/>
      <point x="151" y="662"/>
      <point x="109" y="857"/>
      <point x="109" y="1226" type="curve" smooth="yes"/>
    </contour>
    <contour>
      <point x="544" y="1255" type="line" smooth="yes"/>
      <point x="544" y="1518"/>
      <point x="531" y="1653"/>
      <point x="403" y="1653" type="curve" smooth="yes"/>
      <point x="268" y="1653"/>
      <point x="259" y="1518"/>
      <point x="259" y="1257" type="curve" smooth="yes"/>
      <point x="259" y="1208" type="line" smooth="yes"/>
      <point x="259" y="885"/>
      <point x="272" y="776"/>
      <point x="408" y="776" type="curve" smooth="yes"/>
      <point x="483" y="776"/>
      <point x="524" y="794"/>
      <point x="544" y="803" type="curve"/>
    </contour>
  </outline>
</glyph>
<glyph name="colon" format="1">
  <advance width="555"/>
  <unicode hex="003A"/>
  <outline>
    <contour>
      <point x="179" y="543" type="line"/>
      <point x="179" y="312" type="line"/>
      <point x="362" y="312" type="line"/>
      <point x="362" y="543" type="line"/>
    </contour>
    <contour>
      <point x="179" y="1279" type="line"/>
      <point x="179" y="1048" type="line"/>
      <point x="362" y="1048" type="line"/>
      <point x="362" y="1279" type="line"/>
    </contour>
  </outline>
</glyph>
<glyph name="less" format="1">
  <advance width="730"/>
  <unicode hex="003C"/>
  <outline>
    <contour>
      <point x="63" y="823" type="line"/>
      <point x="642" y="1219" type="line"/>
      <point x="642" y="1051" type="line"/>
      <point x="174" y="758" type="line"/>
      <point x="642" y="448" type="line"/>
      <point x="642" y="288" type="line"/>
      <point x="63" y="688" type="line"/>
    </contour>
  </outline>
</glyph>
<glyph name="equal" format="1">
  <advance width="722"/>
  <unicode hex="003D"/>
  <outline>
    <contour>
      <point x="94" y="1025" type="line"/>
      <point x="628" y="1025" type="line"/>
      <point x="628" y="896" type="line"/>
      <point x="94" y="896" type="line"/>
    </contour>
    <contour>
      <point x="94" y="729" type="line"/>
      <point x="628" y="729" type="line"/>
      <point x="628" y="601" type="line"/>
      <point x="94" y="601" type="line"/>
    </contour>
  </outline>
</glyph>
<glyph name="greater" format="1">
  <advance width="730"/>
  <unicode hex="003E"/>
  <outline>
    <contour>
      <point x="84" y="1059" type="line"/>
      <point x="84" y="1219" type="line"/>
      <point x="663" y="818" type="line"/>
      <point x="663" y="684" type="line"/>
      <point x="84" y="288" type="line"/>
      <point x="84" y="456" type="line"/>
      <point x="552" y="749" type="line"/>
    </contour>
  </outline>
</glyph>
<glyph name="question" format="1">
  <advance width="708"/>
  <unicode hex="003F"/>
  <outline>
    <contour>
      <point x="158" y="1365" type="line" smooth="yes"/>
      <point x="158" y="1510"/>
      <point x="121" y="1782"/>
      <point x="392" y="1782" type="curve" smooth="yes"/>
      <point x="631" y="1782"/>
      <point x="623" y="1590"/>
      <point x="623" y="1314" type="curve" smooth="yes"/>
      <point x="623" y="968"/>
      <point x="562" y="808"/>
      <point x="353" y="750" type="curve"/>
      <point x="353" y="494" type="line"/>
      <point x="228" y="494" type="line"/>
      <point x="228" y="810" type="line"/>
      <point x="476" y="901"/>
      <point x="474" y="1035"/>
      <point x="474" y="1379" type="curve" smooth="yes"/>
      <point x="474" y="1588"/>
      <point x="476" y="1655"/>
      <point x="396" y="1655" type="curve" smooth="yes"/>
      <point x="309" y="1655"/>
      <point x="308" y="1596"/>
      <point x="308" y="1375" type="curve" smooth="yes"/>
      <point x="308" y="1160" type="line"/>
      <point x="158" y="1160" type="line"/>
    </contour>
    <contour>
      <point x="227" y="299" type="line"/>
      <point x="353" y="299" type="line"/>
      <point x="353" y="1" type="line"/>
      <point x="227" y="1" type="line"/>
    </contour>
  </outline>
</glyph>
<glyph name="at" format="1">
  <advance width="1340"/>
  <unicode hex="0040"/>
  <outline>
    <contour>
      <point x="60" y="790" type="curve" smooth="yes"/>
      <point x="60" y="1277"/>
      <point x="224" y="1616"/>
      <point x="739" y="1616" type="curve" smooth="yes"/>
      <point x="1155" y="1616"/>
      <point x="1280" y="1321"/>
      <point x="1280" y="867" type="curve" smooth="yes"/>
      <point x="1280" y="606"/>
      <point x="1217" y="382"/>
      <point x="1051" y="382" type="curve" smooth="yes"/>
      <point x="965" y="382"/>
      <point x="902" y="445"/>
      <point x="886" y="548" type="curve"/>
      <point x="814" y="294"/>
      <point x="357" y="270"/>
      <point x="357" y="801" type="curve" smooth="yes"/>
      <point x="357" y="1085"/>
      <point x="456" y="1407"/>
      <point x="975" y="1237" type="curve"/>
      <point x="975" y="641" type="line" smooth="yes"/>
      <point x="975" y="529"/>
      <point x="993" y="468"/>
      <point x="1052" y="468" type="curve" smooth="yes"/>
      <point x="1128" y="468"/>
      <point x="1171" y="591"/>
      <point x="1171" y="864" type="curve" smooth="yes"/>
      <point x="1171" y="1169"/>
      <point x="1148" y="1514"/>
      <point x="732" y="1514" type="curve" smooth="yes"/>
      <point x="322" y="1514"/>
      <point x="188" y="1215"/>
      <point x="188" y="787" type="curve" smooth="yes"/>
      <point x="188" y="179"/>
      <point x="655" y="44"/>
      <point x="1143" y="221" type="curve"/>
      <point x="1161" y="121" type="line"/>
      <point x="530" y="-81"/>
      <point x="60" y="179"/>
    </contour>
    <contour>
      <point x="856" y="628" type="curve"/>
      <point x="856" y="1188" type="line"/>
      <point x="697" y="1216"/>
      <point x="477" y="1216"/>
      <point x="477" y="806" type="curve" smooth="yes"/>
      <point x="477" y="311"/>
      <point x="809" y="457"/>
    </contour>
  </outline>
</glyph>
<glyph name="A" format="1">
  <advance width="817.166666666"/>
  <unicode hex="0041"/>
  <outline>
    <contour>
      <point x="561" y="473" type="line"/>
      <point x="398.583333333" y="1476" type="line"/>
      <point x="396.583333333" y="1476" type="line"/>
      <point x="248" y="473" type="line"/>
    </contour>
    <contour>
      <point x="317.583333333" y="1760" type="line"/>
      <point x="469.583333333" y="1760" type="line"/>
      <point x="782.583333333" y="0" type="line"/>
      <point x="638.583333333" y="0" type="line"/>
      <point x="581" y="362" type="line"/>
      <point x="229" y="362" type="line"/>
      <point x="175.583333333" y="0" type="line"/>
      <point x="34.5833333333" y="0" type="line"/>
    </contour>
  </outline>
</glyph>
<glyph name="B" format="1">
  <advance width="868"/>
  <unicode hex="0042"/>
  <outline>
    <contour>
      <point x="166" y="1760" type="line"/>
      <point x="423" y="1760" type="line" smooth="yes"/>
      <point x="697" y="1760"/>
      <point x="748" y="1647"/>
      <point x="751" y="1366" type="curve"/>
      <point x="751" y="1343" type="line" smooth="yes"/>
      <point x="751" y="1136"/>
      <point x="736" y="1011"/>
      <point x="638" y="947" type="curve"/>
      <point x="751" y="892"/>
      <point x="775" y="712"/>
      <point x="775" y="518" type="curve" smooth="yes"/>
      <point x="775" y="487" type="line"/>
      <point x="770" y="152"/>
      <point x="712" y="0"/>
      <point x="468" y="0" type="curve" smooth="yes"/>
      <point x="166" y="0" type="line"/>
    </contour>
    <contour>
      <point x="476" y="884" type="curve" smooth="yes"/>
      <point x="315" y="884" type="line"/>
      <point x="315" y="128" type="line"/>
      <point x="473" y="128" type="line" smooth="yes"/>
      <point x="599" y="128"/>
      <point x="626" y="214"/>
      <point x="626" y="536" type="curve"/>
      <point x="625" y="785"/>
      <point x="599" y="884"/>
    </contour>
    <contour>
      <point x="427" y="1629" type="curve" smooth="yes"/>
      <point x="315" y="1629" type="line"/>
      <point x="315" y="1004" type="line"/>
      <point x="449" y="1004" type="line" smooth="yes"/>
      <point x="578" y="1004"/>
      <point x="602" y="1025"/>
      <point x="602" y="1349" type="curve"/>
      <point x="600" y="1597"/>
      <point x="553" y="1629"/>
    </contour>
  </outline>
</glyph>
<glyph name="C" format="1">
  <advance width="865"/>
  <unicode hex="0043"/>
  <outline>
    <contour>
      <point x="134" y="1251" type="line" smooth="yes"/>
      <point x="134" y="1550"/>
      <point x="172" y="1782"/>
      <point x="452" y="1782" type="curve" smooth="yes"/>
      <point x="737" y="1782"/>
      <point x="749" y="1545"/>
      <point x="749" y="1239" type="curve" smooth="yes"/>
      <point x="749" y="1087" type="line"/>
      <point x="598" y="1087" type="line"/>
      <point x="598" y="1257" type="line" smooth="yes"/>
      <point x="598" y="1518"/>
      <point x="580" y="1660"/>
      <point x="451" y="1660" type="curve" smooth="yes"/>
      <point x="318" y="1660"/>
      <point x="283" y="1520"/>
      <point x="283" y="1258" type="curve" smooth="yes"/>
      <point x="283" y="552" type="line" smooth="yes"/>
      <point x="283" y="227"/>
      <point x="309" y="102"/>
      <point x="445" y="102" type="curve" smooth="yes"/>
      <point x="575" y="102"/>
      <point x="598" y="228"/>
      <point x="598" y="551" type="curve" smooth="yes"/>
      <point x="598" y="692" type="line"/>
      <point x="748" y="692" type="line"/>
      <point x="748" y="552" type="line" smooth="yes"/>
      <point x="748" y="183"/>
      <point x="702" y="-20"/>
      <point x="446" y="-20" type="curve" smooth="yes"/>
      <point x="188" y="-20"/>
      <point x="134" y="180"/>
      <point x="134" y="550" type="curve" smooth="yes"/>
    </contour>
  </outline>
</glyph>
<glyph name="D" format="1">
  <advance width="914"/>
  <unicode hex="0044"/>
  <outline>
    <contour>
      <point x="166" y="1760" type="line"/>
      <point x="437" y="1760" type="line" smooth="yes"/>
      <point x="722" y="1760"/>
      <point x="778" y="1564"/>
      <point x="778" y="1258" type="curve" smooth="yes"/>
      <point x="778" y="504" type="line" smooth="yes"/>
      <point x="778" y="138"/>
      <point x="686" y="0"/>
      <point x="431" y="0" type="curve" smooth="yes"/>
      <point x="166" y="0" type="line"/>
    </contour>
    <contour>
      <point x="629" y="1274" type="line" smooth="yes"/>
      <point x="629" y="1534"/>
      <point x="570" y="1636"/>
      <point x="446" y="1636" type="curve" smooth="yes"/>
      <point x="314" y="1636" type="line"/>
      <point x="314" y="128" type="line"/>
      <point x="437" y="128" type="line" smooth="yes"/>
      <point x="566" y="128"/>
      <point x="629" y="194"/>
      <point x="629" y="519" type="curve" smooth="yes"/>
    </contour>
  </outline>
</glyph>
<glyph name="E" format="1">
  <advance width="709"/>
  <unicode hex="0045"/>
  <outline>
    <contour>
      <point x="160" y="1760" type="line"/>
      <point x="625" y="1760" type="line"/>
      <point x="625" y="1644" type="line"/>
      <point x="309" y="1644" type="line"/>
      <point x="309" y="956" type="line"/>
      <point x="606" y="956" type="line"/>
      <point x="606" y="835" type="line"/>
      <point x="309" y="835" type="line"/>
      <point x="309" y="118" type="line"/>
      <point x="622" y="118" type="line"/>
      <point x="622" y="0" type="line"/>
      <point x="160" y="0" type="line"/>
    </contour>
  </outline>
</glyph>
<glyph name="F" format="1">
  <advance width="690"/>
  <unicode hex="0046"/>
  <outline>
    <contour>
      <point x="160" y="1760" type="line"/>
      <point x="160" y="0" type="line"/>
      <point x="308" y="0" type="line"/>
      <point x="308" y="886" type="line"/>
      <point x="605" y="886" type="line"/>
      <point x="605" y="1005" type="line"/>
      <point x="308" y="1005" type="line"/>
      <point x="308" y="1644" type="line"/>
      <point x="622" y="1644" type="line"/>
      <point x="622" y="1760" type="line"/>
    </contour>
    <contour>
      <point x="392" y="1760" type="move" name="top"/>
    </contour>
  </outline>
</glyph>
<glyph name="G" format="1">
  <advance width="889"/>
  <unicode hex="0047"/>
  <outline>
    <contour>
      <point x="134" y="1245" type="line" smooth="yes"/>
      <point x="134" y="1546"/>
      <point x="172" y="1782"/>
      <point x="454" y="1782" type="curve" smooth="yes"/>
      <point x="730" y="1782"/>
      <point x="747" y="1547"/>
      <point x="747" y="1247" type="curve" smooth="yes"/>
      <point x="747" y="1100" type="line"/>
      <point x="595" y="1100" type="line"/>
      <point x="595" y="1372" type="line" smooth="yes"/>
      <point x="595" y="1555"/>
      <point x="571" y="1660"/>
      <point x="449" y="1660" type="curve" smooth="yes"/>
      <point x="323" y="1660"/>
      <point x="283" y="1551"/>
      <point x="283" y="1261" type="curve" smooth="yes"/>
      <point x="283" y="543" type="line" smooth="yes"/>
      <point x="283" y="225"/>
      <point x="310" y="102"/>
      <point x="443" y="102" type="curve" smooth="yes"/>
      <point x="570" y="102"/>
      <point x="599" y="226"/>
      <point x="599" y="541" type="curve" smooth="yes"/>
      <point x="599" y="763" type="line"/>
      <point x="448" y="763" type="line"/>
      <point x="448" y="890" type="line"/>
      <point x="747" y="890" type="line"/>
      <point x="747" y="0" type="line"/>
      <point x="649" y="0" type="line"/>
      <point x="633" y="102" type="line"/>
      <point x="586" y="23"/>
      <point x="526" y="-20"/>
      <point x="417" y="-20" type="curve" smooth="yes"/>
      <point x="221" y="-20"/>
      <point x="134" y="139"/>
      <point x="134" y="532" type="curve" smooth="yes"/>
    </contour>
  </outline>
</glyph>
<glyph name="H" format="1">
  <advance width="940"/>
  <unicode hex="0048"/>
  <outline>
    <contour>
      <point x="631" y="1760" type="line"/>
      <point x="780" y="1760" type="line"/>
      <point x="780" y="0" type="line"/>
      <point x="631" y="0" type="line"/>
      <point x="631" y="886" type="line"/>
      <point x="309" y="886" type="line"/>
      <point x="309" y="0" type="line"/>
      <point x="160" y="0" type="line"/>
      <point x="160" y="1760" type="line"/>
      <point x="309" y="1760" type="line"/>
      <point x="309" y="998" type="line"/>
      <point x="631" y="998" type="line"/>
    </contour>
  </outline>
</glyph>
<glyph name="I" format="1">
  <advance width="504"/>
  <unicode hex="0049"/>
  <outline>
    <contour>
      <point x="178" y="1760" type="line"/>
      <point x="327" y="1760" type="line"/>
      <point x="327" y="0" type="line"/>
      <point x="178" y="0" type="line"/>
    </contour>
  </outline>
</glyph>
<glyph name="J" format="1">
  <advance width="798"/>
  <unicode hex="004A"/>
  <outline>
    <contour>
      <point x="497" y="1760" type="line"/>
      <point x="646" y="1760" type="line"/>
      <point x="646" y="420" type="line" smooth="yes"/>
      <point x="646" y="118"/>
      <point x="572" y="-21"/>
      <point x="377" y="-21" type="curve" smooth="yes"/>
      <point x="160" y="-21"/>
      <point x="94" y="112"/>
      <point x="94" y="389" type="curve" smooth="yes"/>
      <point x="94" y="540" type="line"/>
      <point x="245" y="540" type="line"/>
      <point x="245" y="402" type="line" smooth="yes"/>
      <point x="245" y="241"/>
      <point x="241" y="103"/>
      <point x="371" y="103" type="curve" smooth="yes"/>
      <point x="503" y="103"/>
      <point x="497" y="234"/>
      <point x="497" y="418" type="curve" smooth="yes"/>
    </contour>
  </outline>
</glyph>
<glyph name="K" format="1">
  <advance width="827"/>
  <unicode hex="004B"/>
  <outline>
    <contour>
      <point x="664" y="1760" type="line"/>
      <point x="808" y="1760" type="line"/>
      <point x="446" y="891" type="line"/>
      <point x="831" y="0" type="line"/>
      <point x="677" y="0" type="line"/>
      <point x="311" y="860" type="line"/>
      <point x="311" y="0" type="line"/>
      <point x="160" y="0" type="line"/>
      <point x="160" y="1760" type="line"/>
      <point x="309" y="1760" type="line"/>
      <point x="309" y="893" type="line"/>
    </contour>
  </outline>
</glyph>
<glyph name="L" format="1">
  <advance width="639"/>
  <unicode hex="004C"/>
  <outline>
    <contour>
      <point x="160" y="1760" type="line"/>
      <point x="309" y="1760" type="line"/>
      <point x="309" y="118" type="line"/>
      <point x="621" y="118" type="line"/>
      <point x="621" y="0" type="line"/>
      <point x="160" y="0" type="line"/>
    </contour>
  </outline>
</glyph>
<glyph name="M" format="1">
  <advance width="1198"/>
  <unicode hex="004D"/>
  <outline>
    <contour>
      <point x="871" y="1760" type="line"/>
      <point x="1038" y="1760" type="line"/>
      <point x="1038" y="0" type="line"/>
      <point x="903" y="0" type="line"/>
      <point x="903" y="754" type="line"/>
      <point x="926" y="1463" type="line"/>
      <point x="675" y="38" type="line"/>
      <point x="533" y="38" type="line"/>
      <point x="273" y="1463" type="line"/>
      <point x="296" y="754" type="line"/>
      <point x="296" y="0" type="line"/>
      <point x="160" y="0" type="line"/>
      <point x="160" y="1760" type="line"/>
      <point x="327" y="1760" type="line"/>
      <point x="604" y="282" type="line"/>
    </contour>
  </outline>
</glyph>
<glyph name="N" format="1">
  <advance width="971"/>
  <unicode hex="004E"/>
  <outline>
    <contour>
      <point x="681" y="1760" type="line"/>
      <point x="811" y="1760" type="line"/>
      <point x="811" y="0" type="line"/>
      <point x="695" y="0" type="line"/>
      <point x="290" y="1326" type="line"/>
      <point x="300" y="850" type="line"/>
      <point x="300" y="0" type="line"/>
      <point x="160" y="0" type="line"/>
      <point x="160" y="1760" type="line"/>
      <point x="264" y="1760" type="line"/>
      <point x="696" y="399" type="line"/>
      <point x="681" y="1005" type="line"/>
    </contour>
  </outline>
</glyph>
<glyph name="O" format="1">
  <advance width="887"/>
  <unicode hex="004F"/>
  <outline>
    <contour>
      <point x="134" y="1268" type="line" smooth="yes"/>
      <point x="134" y="1571"/>
      <point x="170" y="1782"/>
      <point x="452" y="1782" type="curve" smooth="yes"/>
      <point x="734" y="1782"/>
      <point x="753" y="1571"/>
      <point x="753" y="1268" type="curve" smooth="yes"/>
      <point x="753" y="519" type="line" smooth="yes"/>
      <point x="753" y="151"/>
      <point x="700" y="-20"/>
      <point x="445" y="-20" type="curve" smooth="yes"/>
      <point x="190" y="-20"/>
      <point x="134" y="151"/>
      <point x="134" y="519" type="curve" smooth="yes"/>
    </contour>
    <contour>
      <point x="604" y="1280" type="line" smooth="yes"/>
      <point x="604" y="1545"/>
      <point x="579" y="1660"/>
      <point x="452" y="1660" type="curve" smooth="yes"/>
      <point x="318" y="1660"/>
      <point x="283" y="1543"/>
      <point x="283" y="1281" type="curve" smooth="yes"/>
      <point x="283" y="519" type="line" smooth="yes"/>
      <point x="283" y="196"/>
      <point x="312" y="102"/>
      <point x="445" y="102" type="curve" smooth="yes"/>
      <point x="573" y="102"/>
      <point x="604" y="196"/>
      <point x="604" y="519" type="curve" smooth="yes"/>
    </contour>
  </outline>
</glyph>
<glyph name="P" format="1">
  <advance width="843"/>
  <unicode hex="0050"/>
  <outline>
    <contour>
      <point x="160" y="1760" type="line"/>
      <point x="466" y="1760" type="line" smooth="yes"/>
      <point x="749" y="1760"/>
      <point x="772" y="1548"/>
      <point x="771" y="1249" type="curve"/>
      <point x="771" y="1231" type="line" smooth="yes"/>
      <point x="771" y="863"/>
      <point x="712" y="689"/>
      <point x="457" y="689" type="curve" smooth="yes"/>
      <point x="309" y="689" type="line"/>
      <point x="309" y="0" type="line"/>
      <point x="160" y="0" type="line"/>
    </contour>
    <contour>
      <point x="622" y="1263" type="line"/>
      <point x="623" y="1520"/>
      <point x="598" y="1636"/>
      <point x="474" y="1636" type="curve" smooth="yes"/>
      <point x="309" y="1636" type="line"/>
      <point x="309" y="815" type="line"/>
      <point x="467" y="815" type="line" smooth="yes"/>
      <point x="591" y="815"/>
      <point x="622" y="915"/>
      <point x="622" y="1229" type="curve" smooth="yes"/>
    </contour>
  </outline>
</glyph>
<glyph name="Q" format="1">
  <advance width="891"/>
  <unicode hex="0051"/>
  <outline>
    <contour>
      <point x="409" y="-17" type="line"/>
      <point x="518" y="27" type="line"/>
      <point x="720" y="-337" type="line"/>
      <point x="622" y="-389" type="line"/>
    </contour>
    <component base="O"/>
  </outline>
</glyph>
<glyph name="R" format="1">
  <advance width="903"/>
  <unicode hex="0052"/>
  <outline>
    <contour>
      <point x="160" y="1760" type="line"/>
      <point x="459" y="1760" type="line" smooth="yes"/>
      <point x="742" y="1760"/>
      <point x="772" y="1630"/>
      <point x="772" y="1326" type="curve" smooth="yes"/>
      <point x="772" y="1100"/>
      <point x="733" y="959"/>
      <point x="610" y="925" type="curve"/>
      <point x="746" y="903"/>
      <point x="771" y="764"/>
      <point x="771" y="164" type="curve" smooth="yes"/>
      <point x="771" y="84"/>
      <point x="771" y="58"/>
      <point x="793" y="0" type="curve"/>
      <point x="645" y="0" type="line"/>
      <point x="624" y="41"/>
      <point x="623" y="82"/>
      <point x="623" y="557" type="curve" smooth="yes"/>
      <point x="623" y="798"/>
      <point x="627" y="858"/>
      <point x="467" y="858" type="curve"/>
      <point x="309" y="868" type="line"/>
      <point x="309" y="0" type="line"/>
      <point x="160" y="0" type="line"/>
    </contour>
    <contour>
      <point x="623" y="1335" type="line" smooth="yes"/>
      <point x="623" y="1594"/>
      <point x="597" y="1636"/>
      <point x="475" y="1636" type="curve" smooth="yes"/>
      <point x="308" y="1636" type="line"/>
      <point x="308" y="968" type="line"/>
      <point x="464" y="968" type="line" smooth="yes"/>
      <point x="592" y="968"/>
      <point x="623" y="1006"/>
      <point x="623" y="1322" type="curve" smooth="yes"/>
    </contour>
  </outline>
</glyph>
<glyph name="S" format="1">
  <advance width="795"/>
  <unicode hex="0053"/>
  <outline>
    <contour>
      <point x="91" y="1346" type="curve" smooth="yes"/>
      <point x="91" y="1599"/>
      <point x="136" y="1782"/>
      <point x="402" y="1782" type="curve" smooth="yes"/>
      <point x="691" y="1782"/>
      <point x="695" y="1545"/>
      <point x="695" y="1242" type="curve" smooth="yes"/>
      <point x="695" y="1143" type="line"/>
      <point x="542" y="1143" type="line"/>
      <point x="542" y="1253" type="line" smooth="yes"/>
      <point x="542" y="1517"/>
      <point x="532" y="1654"/>
      <point x="403" y="1654" type="curve" smooth="yes"/>
      <point x="286" y="1654"/>
      <point x="240" y="1567"/>
      <point x="240" y="1371" type="curve" smooth="yes"/>
      <point x="240" y="1202"/>
      <point x="301" y="1161"/>
      <point x="415" y="1043" type="curve"/>
      <point x="511" y="946" type="line"/>
      <point x="625" y="829"/>
      <point x="724" y="668"/>
      <point x="724" y="436" type="curve" smooth="yes"/>
      <point x="724" y="167"/>
      <point x="676" y="-20"/>
      <point x="411" y="-20" type="curve" smooth="yes"/>
      <point x="131" y="-20"/>
      <point x="105" y="224"/>
      <point x="105" y="523" type="curve" smooth="yes"/>
      <point x="105" y="706" type="line"/>
      <point x="257" y="706" type="line"/>
      <point x="257" y="526" type="line" smooth="yes"/>
      <point x="257" y="224"/>
      <point x="281" y="108"/>
      <point x="420" y="108" type="curve" smooth="yes"/>
      <point x="565" y="108"/>
      <point x="572" y="204"/>
      <point x="572" y="452" type="curve" smooth="yes"/>
      <point x="572" y="633"/>
      <point x="513" y="740"/>
      <point x="417" y="833" type="curve"/>
      <point x="315" y="930" type="line"/>
      <point x="222" y="1021"/>
      <point x="91" y="1144"/>
    </contour>
  </outline>
</glyph>
<glyph name="T" format="1">
  <advance width="542.479452055"/>
  <unicode hex="0054"/>
  <outline>
    <contour>
      <point x="22.7397260274" y="1760" type="line"/>
      <point x="519.739726027" y="1760" type="line"/>
      <point x="519.739726027" y="1644" type="line"/>
      <point x="354.739726027" y="1644" type="line"/>
      <point x="354.739726027" y="0" type="line"/>
      <point x="206.739726027" y="0" type="line"/>
      <point x="206.739726027" y="1644" type="line"/>
      <point x="22.7397260274" y="1644" type="line"/>
    </contour>
  </outline>
</glyph>
<glyph name="U" format="1">
  <advance width="915.0"/>
  <unicode hex="0055"/>
  <outline>
    <contour>
      <point x="618.0" y="1760" type="line"/>
      <point x="767.0" y="1760" type="line"/>
      <point x="767.0" y="452" type="line" smooth="yes"/>
      <point x="767.0" y="132"/>
      <point x="708" y="-20"/>
      <point x="459" y="-20" type="curve" smooth="yes"/>
      <point x="210" y="-20"/>
      <point x="148.0" y="132"/>
      <point x="148.0" y="452" type="curve" smooth="yes"/>
      <point x="148.0" y="1760" type="line"/>
      <point x="297.0" y="1760" type="line"/>
      <point x="297.0" y="457" type="line" smooth="yes"/>
      <point x="297.0" y="228"/>
      <point x="303.0" y="102"/>
      <point x="460.0" y="102" type="curve" smooth="yes"/>
      <point x="618.0" y="102"/>
      <point x="618.0" y="227"/>
      <point x="618.0" y="456" type="curve" smooth="yes"/>
    </contour>
  </outline>
</glyph>
<glyph name="V" format="1">
  <advance width="846.857142857"/>
  <unicode hex="0056"/>
  <outline>
    <contour>
      <point x="656.428571428" y="1760" type="line"/>
      <point x="799.428571428" y="1760" type="line"/>
      <point x="515.428571428" y="0" type="line"/>
      <point x="360.428571428" y="0" type="line"/>
      <point x="47.4285714286" y="1760" type="line"/>
      <point x="190.428571428" y="1760" type="line"/>
      <point x="310.428571428" y="1062" type="line"/>
      <point x="436.428571428" y="318" type="line"/>
      <point x="437.428571428" y="318" type="line"/>
      <point x="549.428571428" y="1062" type="line"/>
    </contour>
  </outline>
</glyph>
<glyph name="W" format="1">
  <advance width="1338"/>
  <unicode hex="0057"/>
  <outline>
    <contour>
      <point x="1127" y="1760" type="line"/>
      <point x="1268" y="1760" type="line"/>
      <point x="1055" y="0" type="line"/>
      <point x="908" y="0" type="line"/>
      <point x="690" y="1448" type="line"/>
      <point x="456" y="0" type="line"/>
      <point x="319" y="0" type="line"/>
      <point x="70" y="1760" type="line"/>
      <point x="216" y="1760" type="line"/>
      <point x="400" y="322" type="line"/>
      <point x="620" y="1760" type="line"/>
      <point x="744" y="1760" type="line"/>
      <point x="979" y="322" type="line"/>
    </contour>
  </outline>
</glyph>
<glyph name="X" format="1">
  <advance width="710.75"/>
  <unicode hex="0058"/>
  <outline>
    <contour>
      <point x="436.875" y="853" type="line"/>
      <point x="655.875" y="0" type="line"/>
      <point x="522.875" y="0" type="line"/>
      <point x="346.875" y="680" type="line"/>
      <point x="175.875" y="0" type="line"/>
      <point x="51.875" y="0" type="line"/>
      <point x="284.875" y="919" type="line"/>
      <point x="66.875" y="1760" type="line"/>
      <point x="203.875" y="1760" type="line"/>
      <point x="372.875" y="1101" type="line"/>
      <point x="534.875" y="1760" type="line"/>
      <point x="658.875" y="1760" type="line"/>
    </contour>
  </outline>
</glyph>
<glyph name="Y" format="1">
  <advance width="802"/>
  <unicode hex="0059"/>
  <outline>
    <contour>
      <point x="624" y="1760" type="line"/>
      <point x="778" y="1760" type="line"/>
      <point x="491" y="773" type="line"/>
      <point x="491" y="0" type="line"/>
      <point x="342" y="0" type="line"/>
      <point x="342" y="772" type="line"/>
      <point x="24" y="1760" type="line"/>
      <point x="174" y="1760" type="line"/>
      <point x="415" y="982" type="line"/>
      <point x="418" y="982" type="line"/>
    </contour>
  </outline>
</glyph>
<glyph name="Z" format="1">
  <advance width="691"/>
  <unicode hex="005A"/>
  <outline>
    <contour>
      <point x="121" y="1760" type="line"/>
      <point x="603" y="1760" type="line"/>
      <point x="603" y="1658" type="line"/>
      <point x="262" y="118" type="line"/>
      <point x="597" y="118" type="line"/>
      <point x="597" y="0" type="line"/>
      <point x="112" y="0" type="line"/>
      <point x="112" y="125" type="line"/>
      <point x="451" y="1644" type="line"/>
      <point x="121" y="1644" type="line"/>
    </contour>
  </outline>
</glyph>
<glyph name="bracketleft" format="1">
  <advance width="589"/>
  <unicode hex="005B"/>
  <outline>
    <contour>
      <point x="166" y="1761" type="line"/>
      <point x="529" y="1761" type="line"/>
      <point x="529" y="1646" type="line"/>
      <point x="315" y="1646" type="line"/>
      <point x="315" y="35" type="line"/>
      <point x="529" y="35" type="line"/>
      <point x="529" y="-80" type="line"/>
      <point x="166" y="-80" type="line"/>
    </contour>
  </outline>
</glyph>
<glyph name="backslash" format="1">
  <advance width="868"/>
  <unicode hex="005C"/>
  <outline>
    <contour>
      <point x="133" y="1761" type="line"/>
      <point x="261" y="1761" type="line"/>
      <point x="671" y="0" type="line"/>
      <point x="544" y="0" type="line"/>
    </contour>
  </outline>
</glyph>
<glyph name="bracketright" format="1">
  <advance width="764"/>
  <unicode hex="005D"/>
  <outline>
    <contour>
      <point x="196" y="1761" type="line"/>
      <point x="558" y="1761" type="line"/>
      <point x="558" y="0" type="line"/>
      <point x="196" y="0" type="line"/>
      <point x="196" y="115" type="line"/>
      <point x="409" y="115" type="line"/>
      <point x="409" y="1646" type="line"/>
      <point x="196" y="1646" type="line"/>
    </contour>
  </outline>
</glyph>
<glyph name="asciicircum" format="1">
  <advance width="1030"/>
  <unicode hex="005E"/>
  <outline>
    <contour>
      <point x="411" y="1500" type="line"/>
      <point x="617" y="1500" type="line"/>
      <point x="858" y="577" type="line"/>
      <point x="709" y="577" type="line"/>
      <point x="515" y="1388" type="line"/>
      <point x="321" y="577" type="line"/>
      <point x="170" y="577" type="line"/>
    </contour>
  </outline>
</glyph>
<glyph name="underscore" format="1">
  <advance width="748"/>
  <unicode hex="005F"/>
  <outline>
    <contour>
      <point x="48" y="-64" type="line"/>
      <point x="699" y="-64" type="line"/>
      <point x="699" y="-185" type="line"/>
      <point x="48" y="-185" type="line"/>
    </contour>
  </outline>
</glyph>
<glyph name="grave" format="1">
  <advance width="650"/>
  <unicode hex="0060"/>
  <outline>
    <contour>
      <point x="136" y="14" type="line"/>
      <point x="136" y="174" type="line"/>
      <point x="468" y="-11" type="line"/>
      <point x="468" y="-80" type="line"/>
    </contour>
  </outline>
</glyph>
<glyph name="a" format="1">
  <advance width="874"/>
  <unicode hex="0061"/>
  <outline>
    <contour>
      <point x="580" y="837" type="line"/>
      <point x="331" y="725"/>
      <point x="292" y="702"/>
      <point x="292" y="509" type="curve" smooth="yes"/>
      <point x="292" y="390" type="line" smooth="yes"/>
      <point x="292" y="190"/>
      <point x="314" y="113"/>
      <point x="410" y="113" type="curve" smooth="yes"/>
      <point x="488" y="113"/>
      <point x="557" y="170"/>
      <point x="580" y="211" type="curve"/>
    </contour>
    <contour>
      <point x="162" y="1051" type="line" smooth="yes"/>
      <point x="162" y="1292"/>
      <point x="171" y="1518"/>
      <point x="450" y="1518" type="curve" smooth="yes"/>
      <point x="733" y="1518"/>
      <point x="729" y="1327"/>
      <point x="729" y="976" type="curve" smooth="yes"/>
      <point x="729" y="0" type="line"/>
      <point x="580" y="0" type="line"/>
      <point x="580" y="112" type="line"/>
      <point x="568" y="75"/>
      <point x="506" y="-11"/>
      <point x="383" y="-11" type="curve" smooth="yes"/>
      <point x="224" y="-11"/>
      <point x="144" y="127"/>
      <point x="144" y="377" type="curve" smooth="yes"/>
      <point x="144" y="569" type="line" smooth="yes"/>
      <point x="144" y="782"/>
      <point x="336" y="851"/>
      <point x="580" y="956" type="curve"/>
      <point x="580" y="1058" type="line" smooth="yes"/>
      <point x="580" y="1288"/>
      <point x="578" y="1387"/>
      <point x="450" y="1387" type="curve" smooth="yes"/>
      <point x="325" y="1387"/>
      <point x="312" y="1293"/>
      <point x="312" y="1048" type="curve" smooth="yes"/>
      <point x="312" y="1011" type="line"/>
      <point x="162" y="1011" type="line"/>
    </contour>
  </outline>
</glyph>
<glyph name="c" format="1">
  <advance width="803.000385802"/>
  <unicode hex="0063"/>
  <outline>
    <contour>
      <point x="128" y="1028" type="line" smooth="yes"/>
      <point x="128" y="1300"/>
      <point x="163" y="1518"/>
      <point x="425" y="1518" type="curve" smooth="yes"/>
      <point x="698" y="1518"/>
      <point x="700" y="1314"/>
      <point x="700" y="1020" type="curve" smooth="yes"/>
      <point x="700" y="973" type="line"/>
      <point x="549" y="973" type="line"/>
      <point x="549" y="1065" type="line" smooth="yes"/>
      <point x="549" y="1274"/>
      <point x="550" y="1381"/>
      <point x="426" y="1381" type="curve" smooth="yes"/>
      <point x="292" y="1381"/>
      <point x="277" y="1254"/>
      <point x="277" y="1057" type="curve" smooth="yes"/>
      <point x="277" y="455" type="line" smooth="yes"/>
      <point x="277" y="222"/>
      <point x="287" y="119"/>
      <point x="419" y="119" type="curve" smooth="yes"/>
      <point x="544" y="119"/>
      <point x="549" y="239"/>
      <point x="549" y="449" type="curve" smooth="yes"/>
      <point x="549" y="562" type="line"/>
      <point x="700" y="562" type="line"/>
      <point x="700" y="517" type="line" smooth="yes"/>
      <point x="700" y="205"/>
      <point x="702" y="-18"/>
      <point x="418" y="-18" type="curve" smooth="yes"/>
      <point x="145" y="-18"/>
      <point x="128" y="202"/>
      <point x="128" y="511" type="curve" smooth="yes"/>
    </contour>
  </outline>
</glyph>
<glyph name="d" format="1">
  <advance width="872"/>
  <unicode hex="0064"/>
  <outline>
    <contour>
      <point x="566" y="1783" type="line"/>
      <point x="716" y="1783" type="line"/>
      <point x="716" y="0" type="line"/>
      <point x="566" y="0" type="line"/>
      <point x="566" y="114" type="line"/>
      <point x="525" y="18"/>
      <point x="441" y="-11"/>
      <point x="367" y="-11" type="curve" smooth="yes"/>
      <point x="165" y="-11"/>
      <point x="130" y="200"/>
      <point x="130" y="481" type="curve" smooth="yes"/>
      <point x="130" y="1008" type="line" smooth="yes"/>
      <point x="130" y="1298"/>
      <point x="174" y="1518"/>
      <point x="407" y="1518" type="curve" smooth="yes"/>
      <point x="478" y="1518"/>
      <point x="540" y="1459"/>
      <point x="566" y="1393" type="curve"/>
    </contour>
    <contour>
      <point x="567" y="1037" type="line" smooth="yes"/>
      <point x="567" y="1279"/>
      <point x="544" y="1385"/>
      <point x="418" y="1385" type="curve"/>
      <point x="309" y="1384"/>
      <point x="280" y="1285"/>
      <point x="280" y="1030" type="curve" smooth="yes"/>
      <point x="280" y="436" type="line" smooth="yes"/>
      <point x="280" y="243"/>
      <point x="292" y="114"/>
      <point x="411" y="114" type="curve" smooth="yes"/>
      <point x="505" y="114"/>
      <point x="567" y="142"/>
      <point x="567" y="434" type="curve" smooth="yes"/>
    </contour>
  </outline>
</glyph>
<glyph name="e" format="1">
  <advance width="817"/>
  <unicode hex="0065"/>
  <outline>
    <contour>
      <point x="128" y="1014" type="line" smooth="yes"/>
      <point x="128" y="1296"/>
      <point x="156" y="1518"/>
      <point x="425" y="1518" type="curve" smooth="yes"/>
      <point x="695" y="1518"/>
      <point x="698" y="1292"/>
      <point x="698" y="1002" type="curve" smooth="yes"/>
      <point x="698" y="752" type="line"/>
      <point x="277" y="752" type="line"/>
      <point x="277" y="450" type="line" smooth="yes"/>
      <point x="277" y="220"/>
      <point x="289" y="113"/>
      <point x="419" y="113" type="curve" smooth="yes"/>
      <point x="542" y="113"/>
      <point x="549" y="236"/>
      <point x="549" y="444" type="curve" smooth="yes"/>
      <point x="549" y="556" type="line"/>
      <point x="694" y="556" type="line"/>
      <point x="694" y="507" type="line" smooth="yes"/>
      <point x="694" y="204"/>
      <point x="696" y="-18"/>
      <point x="421" y="-18" type="curve" smooth="yes"/>
      <point x="146" y="-18"/>
      <point x="128" y="201"/>
      <point x="128" y="511" type="curve" smooth="yes"/>
    </contour>
    <contour>
      <point x="549" y="1068" type="line" smooth="yes"/>
      <point x="549" y="1273"/>
      <point x="551" y="1387"/>
      <point x="426" y="1387" type="curve" smooth="yes"/>
      <point x="295" y="1387"/>
      <point x="277" y="1257"/>
      <point x="277" y="1060" type="curve" smooth="yes"/>
      <point x="277" y="877" type="line"/>
      <point x="549" y="877" type="line"/>
    </contour>
  </outline>
</glyph>
<glyph name="f" format="1">
  <advance width="610"/>
  <unicode hex="0066"/>
  <outline>
    <contour>
      <point x="224" y="1512" type="line" smooth="yes"/>
      <point x="224" y="1688"/>
      <point x="277" y="1789"/>
      <point x="438" y="1789" type="curve" smooth="yes"/>
      <point x="510" y="1789"/>
      <point x="570" y="1772"/>
      <point x="573" y="1771" type="curve"/>
      <point x="573" y="1650" type="line"/>
      <point x="541" y="1655"/>
      <point x="514" y="1657"/>
      <point x="492" y="1657" type="curve" smooth="yes"/>
      <point x="381" y="1657"/>
      <point x="374" y="1606"/>
      <point x="374" y="1534" type="curve" smooth="yes"/>
      <point x="374" y="1442" type="line"/>
      <point x="573" y="1442" type="line"/>
      <point x="573" y="1329" type="line"/>
      <point x="374" y="1329" type="line"/>
      <point x="374" y="0" type="line"/>
      <point x="224" y="0" type="line"/>
      <point x="224" y="1329" type="line"/>
      <point x="84" y="1329" type="line"/>
      <point x="84" y="1442" type="line"/>
      <point x="224" y="1442" type="line"/>
    </contour>
  </outline>
</glyph>
<glyph name="g" format="1">
  <advance width="860"/>
  <unicode hex="0067"/>
  <outline>
    <contour>
      <point x="126" y="1013" type="line" smooth="yes"/>
      <point x="126" y="1299"/>
      <point x="201" y="1522"/>
      <point x="404" y="1518" type="curve" smooth="yes"/>
      <point x="471" y="1517"/>
      <point x="534" y="1489"/>
      <point x="563" y="1412" type="curve"/>
      <point x="563" y="1500" type="line"/>
      <point x="712" y="1500" type="line"/>
      <point x="712" y="97" type="line" smooth="yes"/>
      <point x="712" y="-11"/>
      <point x="671" y="-220"/>
      <point x="421" y="-232" type="curve" smooth="yes"/>
      <point x="311" y="-238"/>
      <point x="197" y="-197"/>
      <point x="132" y="-147" type="curve"/>
      <point x="189" y="-32" type="line"/>
      <point x="237" y="-68"/>
      <point x="312" y="-109"/>
      <point x="425" y="-105" type="curve"/>
      <point x="509" y="-101"/>
      <point x="563" y="-33"/>
      <point x="563" y="80" type="curve" smooth="yes"/>
      <point x="563" y="245" type="line"/>
      <point x="520" y="148"/>
      <point x="453" y="127"/>
      <point x="379" y="127" type="curve" smooth="yes"/>
      <point x="170" y="127"/>
      <point x="126" y="345"/>
      <point x="126" y="632" type="curve" smooth="yes"/>
    </contour>
    <contour>
      <point x="563" y="1050" type="line" smooth="yes"/>
      <point x="563" y="1280"/>
      <point x="544" y="1387"/>
      <point x="422" y="1387" type="curve" smooth="yes"/>
      <point x="289" y="1387"/>
      <point x="275" y="1251"/>
      <point x="275" y="1052" type="curve" smooth="yes"/>
      <point x="275" y="611" type="line" smooth="yes"/>
      <point x="275" y="364"/>
      <point x="307" y="255"/>
      <point x="434" y="255" type="curve" smooth="yes"/>
      <point x="523" y="255"/>
      <point x="563" y="314"/>
      <point x="563" y="614" type="curve" smooth="yes"/>
    </contour>
  </outline>
</glyph>
<glyph name="h" format="1">
  <advance width="921"/>
  <unicode hex="0068"/>
  <outline>
    <contour>
      <point x="160" y="1783" type="line"/>
      <point x="309" y="1783" type="line"/>
      <point x="309" y="1353" type="line"/>
      <point x="335" y="1438"/>
      <point x="436" y="1519"/>
      <point x="553" y="1519" type="curve" smooth="yes"/>
      <point x="681" y="1519"/>
      <point x="773" y="1425"/>
      <point x="773" y="1211" type="curve" smooth="yes"/>
      <point x="773" y="0" type="line"/>
      <point x="623" y="0" type="line"/>
      <point x="623" y="1201" type="line" smooth="yes"/>
      <point x="623" y="1346"/>
      <point x="565" y="1381"/>
      <point x="485" y="1381" type="curve" smooth="yes"/>
      <point x="402" y="1381"/>
      <point x="309" y="1340"/>
      <point x="309" y="1191" type="curve" smooth="yes"/>
      <point x="309" y="0" type="line"/>
      <point x="160" y="0" type="line"/>
    </contour>
  </outline>
</glyph>
<glyph name="j" format="1">
  <advance width="479.846153846"/>
  <unicode hex="006A"/>
  <outline>
    <contour>
      <point x="176.0" y="1500" type="line"/>
      <point x="325.0" y="1500" type="line"/>
      <point x="325.0" y="-34" type="line" smooth="yes"/>
      <point x="325.0" y="-190"/>
      <point x="234.0" y="-216"/>
      <point x="202.0" y="-221" type="curve" smooth="yes"/>
      <point x="133.0" y="-230"/>
      <point x="70.0" y="-218"/>
      <point x="68.0" y="-218" type="curve"/>
      <point x="68.0" y="-110" type="line"/>
      <point x="68.0" y="-110"/>
      <point x="109.0" y="-115"/>
      <point x="139.0" y="-111" type="curve"/>
      <point x="168.0" y="-106"/>
      <point x="176.0" y="-81"/>
      <point x="176.0" y="-44" type="curve" smooth="yes"/>
    </contour>
    <contour>
      <point x="177.0" y="1782" type="line"/>
      <point x="326.0" y="1782" type="line"/>
      <point x="326.0" y="1638" type="line"/>
      <point x="177.0" y="1638" type="line"/>
    </contour>
  </outline>
</glyph>
<glyph name="k" format="1">
  <advance width="799"/>
  <unicode hex="006B"/>
  <outline>
    <contour>
      <point x="161" y="1783" type="line"/>
      <point x="310" y="1783" type="line"/>
      <point x="310" y="760" type="line"/>
      <point x="641" y="1500" type="line"/>
      <point x="790" y="1500" type="line"/>
      <point x="449" y="756" type="line"/>
      <point x="808" y="0" type="line"/>
      <point x="652" y="0" type="line"/>
      <point x="310" y="742" type="line"/>
      <point x="310" y="0" type="line"/>
      <point x="161" y="0" type="line"/>
    </contour>
  </outline>
</glyph>
<glyph name="m" format="1">
  <advance width="1362"/>
  <unicode hex="006D"/>
  <outline>
    <contour>
      <point x="309" y="1351" type="line"/>
      <point x="334" y="1436"/>
      <point x="424" y="1519"/>
      <point x="538" y="1519" type="curve" smooth="yes"/>
      <point x="633" y="1519"/>
      <point x="705" y="1469"/>
      <point x="739" y="1367" type="curve"/>
      <point x="787" y="1456"/>
      <point x="883" y="1519"/>
      <point x="993" y="1519" type="curve" smooth="yes"/>
      <point x="1117" y="1519"/>
      <point x="1212" y="1429"/>
      <point x="1212" y="1217" type="curve" smooth="yes"/>
      <point x="1212" y="0" type="line"/>
      <point x="1062" y="0" type="line"/>
      <point x="1062" y="1226" type="line" smooth="yes"/>
      <point x="1062" y="1345"/>
      <point x="1006" y="1381"/>
      <point x="925" y="1381" type="curve" smooth="yes"/>
      <point x="846" y="1381"/>
      <point x="768" y="1365"/>
      <point x="760" y="1239" type="curve" smooth="yes"/>
      <point x="760" y="1217" type="line" smooth="yes"/>
      <point x="760" y="0" type="line"/>
      <point x="611" y="0" type="line"/>
      <point x="611" y="1226" type="line" smooth="yes"/>
      <point x="611" y="1348"/>
      <point x="554" y="1381"/>
      <point x="475" y="1381" type="curve" smooth="yes"/>
      <point x="370" y="1381"/>
      <point x="309" y="1324"/>
      <point x="309" y="1209" type="curve" smooth="yes"/>
      <point x="309" y="0" type="line"/>
      <point x="160" y="0" type="line"/>
      <point x="160" y="1500" type="line"/>
      <point x="309" y="1500" type="line"/>
    </contour>
  </outline>
</glyph>
<glyph name="n" format="1">
  <advance width="922"/>
  <unicode hex="006E"/>
  <outline>
    <contour>
      <point x="309" y="1353" type="line"/>
      <point x="335" y="1438"/>
      <point x="434" y="1519"/>
      <point x="551" y="1519" type="curve" smooth="yes"/>
      <point x="680" y="1519"/>
      <point x="772" y="1425"/>
      <point x="772" y="1211" type="curve" smooth="yes"/>
      <point x="772" y="0" type="line"/>
      <point x="623" y="0" type="line"/>
      <point x="623" y="1223" type="line" smooth="yes"/>
      <point x="623" y="1346"/>
      <point x="558" y="1387"/>
      <point x="478" y="1387" type="curve" smooth="yes"/>
      <point x="395" y="1387"/>
      <point x="309" y="1354"/>
      <point x="309" y="1220" type="curve" smooth="yes"/>
      <point x="309" y="0" type="line"/>
      <point x="160" y="0" type="line"/>
      <point x="160" y="1500" type="line"/>
      <point x="309" y="1500" type="line"/>
    </contour>
  </outline>
</glyph>
<glyph name="o" format="1">
  <advance width="845"/>
  <unicode hex="006F"/>
  <outline>
    <contour>
      <point x="157" y="1518"/>
      <point x="128" y="1300"/>
      <point x="128" y="1018" type="curve" smooth="yes"/>
      <point x="128" y="515" type="line" smooth="yes"/>
      <point x="128" y="204"/>
      <point x="149" y="-18"/>
      <point x="426" y="-18" type="curve" smooth="yes"/>
      <point x="705" y="-18"/>
      <point x="717" y="209"/>
      <point x="717" y="515" type="curve" smooth="yes"/>
      <point x="717" y="1018" type="line" smooth="yes"/>
      <point x="717" y="1301"/>
      <point x="696" y="1518"/>
      <point x="426" y="1518" type="curve" smooth="yes"/>
    </contour>
    <contour>
      <point x="551" y="1387"/>
      <point x="568" y="1250"/>
      <point x="568" y="1053" type="curve" smooth="yes"/>
      <point x="568" y="463" type="line" smooth="yes"/>
      <point x="568" y="253"/>
      <point x="550" y="113"/>
      <point x="426" y="113" type="curve" smooth="yes"/>
      <point x="293" y="113"/>
      <point x="277" y="253"/>
      <point x="277" y="463" type="curve" smooth="yes"/>
      <point x="277" y="1053" type="line" smooth="yes"/>
      <point x="277" y="1250"/>
      <point x="291" y="1387"/>
      <point x="426" y="1387" type="curve" smooth="yes"/>
    </contour>
    <contour>
      <point x="423" y="1500" type="move" name="top"/>
    </contour>
  </outline>
</glyph>
<glyph name="p" format="1">
  <advance width="876"/>
  <unicode hex="0070"/>
  <outline>
    <contour>
      <point x="312" y="1385" type="line"/>
      <point x="353" y="1482"/>
      <point x="433" y="1511"/>
      <point x="511" y="1511" type="curve" smooth="yes"/>
      <point x="716" y="1511"/>
      <point x="748" y="1298"/>
      <point x="748" y="1013" type="curve" smooth="yes"/>
      <point x="748" y="475" type="line" smooth="yes"/>
      <point x="748" y="194"/>
      <point x="696" y="-18"/>
      <point x="472" y="-18" type="curve" smooth="yes"/>
      <point x="401" y="-18"/>
      <point x="338" y="40"/>
      <point x="312" y="108" type="curve"/>
      <point x="312" y="-265" type="line"/>
      <point x="163" y="-265" type="line"/>
      <point x="163" y="1500" type="line"/>
      <point x="312" y="1500" type="line"/>
    </contour>
    <contour>
      <point x="599" y="1061" type="line" smooth="yes"/>
      <point x="599" y="1259"/>
      <point x="588" y="1386"/>
      <point x="470" y="1386" type="curve" smooth="yes"/>
      <point x="373" y="1386"/>
      <point x="312" y="1351"/>
      <point x="312" y="1059" type="curve" smooth="yes"/>
      <point x="312" y="463" type="line" smooth="yes"/>
      <point x="312" y="222"/>
      <point x="338" y="115"/>
      <point x="464" y="115" type="curve"/>
      <point x="573" y="116"/>
      <point x="599" y="214"/>
      <point x="599" y="468" type="curve" smooth="yes"/>
    </contour>
  </outline>
</glyph>
<glyph name="q" format="1">
  <advance width="858"/>
  <unicode hex="0071"/>
  <outline>
    <contour>
      <point x="128" y="1013" type="line" smooth="yes"/>
      <point x="128" y="1298"/>
      <point x="157" y="1511"/>
      <point x="364" y="1511" type="curve" smooth="yes"/>
      <point x="442" y="1511"/>
      <point x="524" y="1480"/>
      <point x="565" y="1381" type="curve"/>
      <point x="565" y="1500" type="line"/>
      <point x="715" y="1500" type="line"/>
      <point x="715" y="-265" type="line"/>
      <point x="565" y="-265" type="line"/>
      <point x="565" y="106" type="line"/>
      <point x="537" y="39"/>
      <point x="475" y="-18"/>
      <point x="404" y="-18" type="curve" smooth="yes"/>
      <point x="178" y="-18"/>
      <point x="128" y="198"/>
      <point x="128" y="479" type="curve" smooth="yes"/>
    </contour>
    <contour>
      <point x="564" y="1037" type="line" smooth="yes"/>
      <point x="564" y="1276"/>
      <point x="540" y="1385"/>
      <point x="412" y="1385" type="curve"/>
      <point x="303" y="1384"/>
      <point x="276" y="1286"/>
      <point x="276" y="1031" type="curve" smooth="yes"/>
      <point x="276" y="437" type="line" smooth="yes"/>
      <point x="276" y="241"/>
      <point x="288" y="114"/>
      <point x="406" y="114" type="curve" smooth="yes"/>
      <point x="502" y="114"/>
      <point x="564" y="147"/>
      <point x="564" y="441" type="curve" smooth="yes"/>
    </contour>
  </outline>
</glyph>
<glyph name="r" format="1">
  <advance width="617"/>
  <unicode hex="0072"/>
  <outline>
    <contour>
      <point x="310" y="1333" type="line"/>
      <point x="344" y="1449"/>
      <point x="432" y="1518"/>
      <point x="565" y="1518" type="curve" smooth="yes"/>
      <point x="570" y="1518"/>
      <point x="568" y="1391"/>
      <point x="568" y="1391" type="curve"/>
      <point x="469" y="1391"/>
      <point x="391" y="1361"/>
      <point x="310" y="1246" type="curve"/>
      <point x="310" y="0" type="line"/>
      <point x="161" y="0" type="line"/>
      <point x="161" y="1500" type="line"/>
      <point x="310" y="1500" type="line"/>
    </contour>
  </outline>
</glyph>
<glyph name="s" format="1">
  <advance width="817"/>
  <unicode hex="0073"/>
  <outline>
    <contour>
      <point x="120" y="1180" type="curve" smooth="yes"/>
      <point x="120" y="1409"/>
      <point x="241" y="1518"/>
      <point x="413" y="1518" type="curve" smooth="yes"/>
      <point x="605" y="1518"/>
      <point x="689" y="1386"/>
      <point x="689" y="1037" type="curve" smooth="yes"/>
      <point x="689" y="957" type="line"/>
      <point x="534" y="957" type="line"/>
      <point x="534" y="1064" type="line" smooth="yes"/>
      <point x="534" y="1267"/>
      <point x="504" y="1381"/>
      <point x="414" y="1381" type="curve" smooth="yes"/>
      <point x="321" y="1381"/>
      <point x="276" y="1335"/>
      <point x="271" y="1186" type="curve" smooth="yes"/>
      <point x="267" y="1074"/>
      <point x="317" y="952"/>
      <point x="434" y="839" type="curve" smooth="yes"/>
      <point x="511" y="764" type="line"/>
      <point x="640" y="635"/>
      <point x="710" y="485"/>
      <point x="710" y="325" type="curve" smooth="yes"/>
      <point x="710" y="121"/>
      <point x="625" y="-20"/>
      <point x="433" y="-20" type="curve" smooth="yes"/>
      <point x="224" y="-20"/>
      <point x="129" y="108"/>
      <point x="129" y="407" type="curve" smooth="yes"/>
      <point x="129" y="536" type="line"/>
      <point x="282" y="536" type="line"/>
      <point x="282" y="433" type="line" smooth="yes"/>
      <point x="282" y="230"/>
      <point x="325" y="116"/>
      <point x="420" y="116" type="curve" smooth="yes"/>
      <point x="517" y="116"/>
      <point x="556" y="168"/>
      <point x="556" y="334" type="curve" smooth="yes"/>
      <point x="556" y="446"/>
      <point x="509" y="563"/>
      <point x="400" y="674" type="curve" smooth="yes"/>
      <point x="321" y="754" type="line" smooth="yes"/>
      <point x="194" y="883"/>
      <point x="120" y="1029"/>
    </contour>
  </outline>
</glyph>
<glyph name="t" format="1">
  <advance width="582"/>
  <unicode hex="0074"/>
  <outline>
    <contour>
      <point x="195" y="1760" type="line"/>
      <point x="195" y="1506" type="line"/>
      <point x="45" y="1506" type="line"/>
      <point x="45" y="1390" type="line"/>
      <point x="195" y="1390" type="line"/>
      <point x="195" y="217" type="line" smooth="yes"/>
      <point x="195" y="48"/>
      <point x="224" y="-9"/>
      <point x="417" y="-9" type="curve" smooth="yes"/>
      <point x="521" y="-9" type="line"/>
      <point x="521" y="118" type="line"/>
      <point x="355" y="118"/>
      <point x="345" y="129"/>
      <point x="345" y="209" type="curve" smooth="yes"/>
      <point x="345" y="1390" type="line"/>
      <point x="522" y="1390" type="line"/>
      <point x="522" y="1506" type="line"/>
      <point x="345" y="1506" type="line"/>
      <point x="345" y="1760" type="line"/>
    </contour>
    <contour>
      <point x="486.156" y="1334.88" type="move" name="center"/>
    </contour>
    <contour>
      <point x="400" y="0" type="move" name="bottom"/>
    </contour>
    <contour>
      <point x="258" y="1760" type="move" name="top"/>
    </contour>
  </outline>
</glyph>
<glyph name="u" format="1">
  <advance width="914"/>
  <unicode hex="0075"/>
  <outline>
    <contour>
      <point x="610" y="1500" type="line"/>
      <point x="761" y="1500" type="line"/>
      <point x="761" y="0" type="line"/>
      <point x="612" y="0" type="line"/>
      <point x="612" y="150" type="line"/>
      <point x="588" y="65"/>
      <point x="501" y="-20"/>
      <point x="385" y="-20" type="curve" smooth="yes"/>
      <point x="290" y="-20"/>
      <point x="148" y="47"/>
      <point x="148" y="285" type="curve" smooth="yes"/>
      <point x="148" y="1500" type="line"/>
      <point x="297" y="1500" type="line"/>
      <point x="297" y="292" type="line" smooth="yes"/>
      <point x="297" y="174"/>
      <point x="354" y="119"/>
      <point x="444" y="119" type="curve" smooth="yes"/>
      <point x="549" y="119"/>
      <point x="612" y="190"/>
      <point x="612" y="303" type="curve" smooth="yes"/>
    </contour>
  </outline>
</glyph>
<glyph name="v" format="1">
  <advance width="677"/>
  <unicode hex="0076"/>
  <outline>
    <contour>
      <point x="497" y="1500" type="line"/>
      <point x="387" y="625" type="line"/>
      <point x="347" y="259" type="line"/>
      <point x="337" y="259" type="line"/>
      <point x="297" y="624" type="line"/>
      <point x="179" y="1500" type="line"/>
      <point x="45" y="1500" type="line"/>
      <point x="264" y="0" type="line"/>
      <point x="413" y="0" type="line"/>
      <point x="631" y="1500" type="line"/>
    </contour>
  </outline>
</glyph>
<glyph name="w" format="1">
  <advance width="1080.0"/>
  <unicode hex="0077"/>
  <outline>
    <contour>
      <point x="888.0" y="1500" type="line"/>
      <point x="1020.0" y="1500" type="line"/>
      <point x="846.0" y="0" type="line"/>
      <point x="698.0" y="0" type="line"/>
      <point x="551.0" y="1283" type="line"/>
      <point x="378.0" y="0" type="line"/>
      <point x="236.0" y="0" type="line"/>
      <point x="60.0" y="1500" type="line"/>
      <point x="197.0" y="1500" type="line"/>
      <point x="287.0" y="613" type="line"/>
      <point x="311.0" y="302" type="line"/>
      <point x="323.0" y="302" type="line"/>
      <point x="353.0" y="614" type="line"/>
      <point x="479.0" y="1500" type="line"/>
      <point x="526.0" y="1500" type="line"/>
      <point x="580.0" y="1500" type="line"/>
      <point x="606.0" y="1500" type="line"/>
      <point x="743.0" y="646" type="line"/>
      <point x="783.0" y="302" type="line"/>
      <point x="793.0" y="302" type="line"/>
      <point x="813.0" y="648" type="line"/>
    </contour>
  </outline>
</glyph>
<glyph name="x" format="1">
  <advance width="668.217391304"/>
  <unicode hex="0078"/>
  <outline>
    <contour>
      <point x="399.608695652" y="779" type="line"/>
      <point x="635.608695652" y="0" type="line"/>
      <point x="496.608695652" y="0" type="line"/>
      <point x="325.608695652" y="574" type="line"/>
      <point x="164.608695652" y="0" type="line"/>
      <point x="32.6086956522" y="0" type="line"/>
      <point x="269.608695652" y="762" type="line"/>
      <point x="50.6086956522" y="1500" type="line"/>
      <point x="180.608695652" y="1500" type="line"/>
      <point x="340.608695652" y="973" type="line"/>
      <point x="489.608695652" y="1500" type="line"/>
      <point x="631.608695652" y="1500" type="line"/>
    </contour>
  </outline>
</glyph>
<glyph name="y" format="1">
  <advance width="733"/>
  <unicode hex="0079"/>
  <outline>
    <contour>
      <point x="541" y="1500" type="line"/>
      <point x="690" y="1500" type="line"/>
      <point x="451" y="3" type="line" smooth="yes"/>
      <point x="423" y="-178"/>
      <point x="408" y="-238"/>
      <point x="254" y="-238" type="curve" smooth="yes"/>
      <point x="130" y="-238" type="line"/>
      <point x="130" y="-110" type="line"/>
      <point x="185" y="-110" type="line" smooth="yes"/>
      <point x="241" y="-110"/>
      <point x="296" y="-107"/>
      <point x="308" y="-99" type="curve"/>
      <point x="330" y="-76"/>
      <point x="321" y="-26"/>
      <point x="311" y="38" type="curve" smooth="yes"/>
      <point x="61" y="1500" type="line"/>
      <point x="211" y="1500" type="line"/>
      <point x="330" y="707" type="line"/>
      <point x="378" y="299" type="line"/>
      <point x="391" y="299" type="line"/>
      <point x="434" y="707" type="line"/>
    </contour>
  </outline>
</glyph>
<glyph name="z" format="1">
  <advance width="621.0"/>
  <unicode hex="007A"/>
  <outline>
    <contour>
      <point x="105.0" y="1500" type="line"/>
      <point x="568.0" y="1500" type="line"/>
      <point x="568.0" y="1407" type="line"/>
      <point x="234.0" y="130" type="line"/>
      <point x="548.0" y="130" type="line"/>
      <point x="548.0" y="0" type="line"/>
      <point x="80.0" y="0" type="line"/>
      <point x="80.0" y="108" type="line"/>
      <point x="409.0" y="1371" type="line"/>
      <point x="105.0" y="1371" type="line"/>
    </contour>
  </outline>
</glyph>
<glyph name="braceleft" format="1">
  <advance width="798"/>
  <unicode hex="007B"/>
  <outline>
    <contour>
      <point x="562" y="1781" type="curve" smooth="yes"/>
      <point x="622" y="1781" type="line"/>
      <point x="622" y="1644" type="line"/>
      <point x="498" y="1644"/>
      <point x="483" y="1622"/>
      <point x="483" y="1430" type="curve" smooth="yes"/>
      <point x="483" y="1184" type="line" smooth="yes"/>
      <point x="483" y="912"/>
      <point x="465" y="876"/>
      <point x="311" y="830" type="curve"/>
      <point x="465" y="784"/>
      <point x="483" y="748"/>
      <point x="483" y="476" type="curve" smooth="yes"/>
      <point x="483" y="230" type="line" smooth="yes"/>
      <point x="483" y="38"/>
      <point x="498" y="16"/>
      <point x="622" y="16" type="curve"/>
      <point x="622" y="-121" type="line"/>
      <point x="562" y="-121" type="line" smooth="yes"/>
      <point x="383" y="-121"/>
      <point x="334" y="-44"/>
      <point x="334" y="217" type="curve" smooth="yes"/>
      <point x="334" y="492" type="line" smooth="yes"/>
      <point x="334" y="706"/>
      <point x="317" y="729"/>
      <point x="195" y="729" type="curve"/>
      <point x="195" y="931" type="line"/>
      <point x="317" y="931"/>
      <point x="334" y="954"/>
      <point x="334" y="1168" type="curve" smooth="yes"/>
      <point x="334" y="1443" type="line" smooth="yes"/>
      <point x="334" y="1704"/>
      <point x="383" y="1781"/>
    </contour>
  </outline>
</glyph>
<glyph name="bar" format="1">
  <advance width="537"/>
  <unicode hex="007C"/>
  <outline>
    <contour>
      <point x="199" y="1683" type="line"/>
      <point x="352" y="1683" type="line"/>
      <point x="352" y="-84" type="line"/>
      <point x="199" y="-84" type="line"/>
    </contour>
  </outline>
</glyph>
<glyph name="braceright" format="1">
  <advance width="628"/>
  <unicode hex="007D"/>
  <outline>
    <contour>
      <point x="178" y="-81" type="line" smooth="yes"/>
      <point x="357" y="-81"/>
      <point x="406" y="-3"/>
      <point x="406" y="258" type="curve" smooth="yes"/>
      <point x="406" y="553" type="line" smooth="yes"/>
      <point x="406" y="767"/>
      <point x="422" y="810"/>
      <point x="544" y="810" type="curve"/>
      <point x="544" y="891" type="line"/>
      <point x="422" y="891"/>
      <point x="406" y="934"/>
      <point x="406" y="1148" type="curve" smooth="yes"/>
      <point x="406" y="1443" type="line" smooth="yes"/>
      <point x="406" y="1704"/>
      <point x="357" y="1782"/>
      <point x="178" y="1782" type="curve" smooth="yes"/>
      <point x="118" y="1782" type="line"/>
      <point x="118" y="1658" type="line"/>
      <point x="242" y="1658"/>
      <point x="258" y="1622"/>
      <point x="258" y="1430" type="curve" smooth="yes"/>
      <point x="258" y="1164" type="line" smooth="yes"/>
      <point x="258" y="974"/>
      <point x="279" y="898"/>
      <point x="377" y="850" type="curve"/>
      <point x="279" y="803"/>
      <point x="258" y="727"/>
      <point x="258" y="537" type="curve" smooth="yes"/>
      <point x="258" y="271" type="line" smooth="yes"/>
      <point x="258" y="79"/>
      <point x="242" y="43"/>
      <point x="118" y="43" type="curve"/>
      <point x="118" y="-81" type="line"/>
    </contour>
  </outline>
</glyph>
<glyph name="asciitilde" format="1">
  <advance width="1049"/>
  <unicode hex="007E"/>
  <outline>
    <contour>
      <point x="740" y="986" type="curve" smooth="yes"/>
      <point x="786" y="986"/>
      <point x="804" y="1019"/>
      <point x="815" y="1140" type="curve"/>
      <point x="938" y="1123" type="line"/>
      <point x="921" y="926"/>
      <point x="860" y="853"/>
      <point x="762" y="853" type="curve" smooth="yes"/>
      <point x="648" y="853"/>
      <point x="383" y="965"/>
      <point x="317" y="970" type="curve" smooth="yes"/>
      <point x="264" y="974"/>
      <point x="245" y="921"/>
      <point x="229" y="840" type="curve"/>
      <point x="111" y="875" type="line"/>
      <point x="142" y="1041"/>
      <point x="207" y="1101"/>
      <point x="295" y="1101" type="curve" smooth="yes"/>
      <point x="399" y="1101"/>
      <point x="676" y="986"/>
    </contour>
  </outline>
</glyph>
<glyph name="cent" format="1">
  <advance width="788"/>
  <unicode hex="00A2"/>
  <outline>
    <component base="c"/>
    <contour>
      <point x="335" y="1768" type="line"/>
      <point x="448" y="1768" type="line"/>
      <point x="448" y="1511" type="line"/>
      <point x="335" y="1513" type="line"/>
    </contour>
    <contour>
      <point x="335" y="6" type="line"/>
      <point x="448" y="6" type="line"/>
      <point x="448" y="-249" type="line"/>
      <point x="335" y="-249" type="line"/>
    </contour>
  </outline>
</glyph>
<glyph name="sterling" format="1">
  <advance width="809"/>
  <unicode hex="00A3"/>
  <outline>
    <contour>
      <point x="473" y="1782" type="curve" smooth="yes"/>
      <point x="606" y="1782"/>
      <point x="775" y="1710"/>
      <point x="775" y="1381" type="curve" smooth="yes"/>
      <point x="775" y="1246" type="line"/>
      <point x="642" y="1246" type="line"/>
      <point x="642" y="1393" type="line" smooth="yes"/>
      <point x="642" y="1591"/>
      <point x="565" y="1656"/>
      <point x="464" y="1656" type="curve" smooth="yes"/>
      <point x="374" y="1656"/>
      <point x="300" y="1604"/>
      <point x="300" y="1409" type="curve" smooth="yes"/>
      <point x="300" y="1301"/>
      <point x="323" y="1148"/>
      <point x="378" y="936" type="curve"/>
      <point x="684" y="936" type="line"/>
      <point x="684" y="833" type="line"/>
      <point x="398" y="833" type="line"/>
      <point x="404" y="786"/>
      <point x="415" y="691"/>
      <point x="415" y="583" type="curve" smooth="yes"/>
      <point x="415" y="420"/>
      <point x="389" y="225"/>
      <point x="277" y="107" type="curve"/>
      <point x="766" y="107" type="line"/>
      <point x="766" y="0" type="line"/>
      <point x="62" y="0" type="line"/>
      <point x="62" y="86" type="line"/>
      <point x="226" y="158"/>
      <point x="280" y="308"/>
      <point x="280" y="633" type="curve" smooth="yes"/>
      <point x="280" y="698"/>
      <point x="273" y="771"/>
      <point x="261" y="833" type="curve"/>
      <point x="78" y="833" type="line"/>
      <point x="78" y="936" type="line"/>
      <point x="233" y="936" type="line"/>
      <point x="186" y="1112"/>
      <point x="162" y="1262"/>
      <point x="162" y="1386" type="curve" smooth="yes"/>
      <point x="162" y="1643"/>
      <point x="265" y="1782"/>
    </contour>
  </outline>
</glyph>
<glyph name="currency" format="1">
  <advance width="1159"/>
  <unicode hex="00A4"/>
  <outline>
    <contour>
      <point x="797" y="1634" type="curve"/>
      <point x="884" y="1721" type="line"/>
      <point x="1034" y="1572" type="line"/>
      <point x="944" y="1482" type="line"/>
      <point x="980" y="1417"/>
      <point x="998" y="1346"/>
      <point x="998" y="1267" type="curve" smooth="yes"/>
      <point x="998" y="1188"/>
      <point x="980" y="1116"/>
      <point x="944" y="1051" type="curve"/>
      <point x="1034" y="961" type="line"/>
      <point x="884" y="812" type="line"/>
      <point x="795" y="900" type="line"/>
      <point x="733" y="865"/>
      <point x="661" y="848"/>
      <point x="579" y="848" type="curve" smooth="yes"/>
      <point x="496" y="848"/>
      <point x="424" y="866"/>
      <point x="363" y="901" type="curve"/>
      <point x="274" y="812" type="line"/>
      <point x="125" y="962" type="line"/>
      <point x="216" y="1053" type="line"/>
      <point x="181" y="1118"/>
      <point x="163" y="1190"/>
      <point x="163" y="1267" type="curve" smooth="yes"/>
      <point x="163" y="1345"/>
      <point x="180" y="1416"/>
      <point x="215" y="1481" type="curve"/>
      <point x="125" y="1571" type="line"/>
      <point x="274" y="1721" type="line"/>
      <point x="361" y="1633" type="line"/>
      <point x="426" y="1670"/>
      <point x="498" y="1688"/>
      <point x="579" y="1688" type="curve" smooth="yes"/>
      <point x="659" y="1688"/>
      <point x="732" y="1670"/>
    </contour>
    <contour>
      <point x="876" y="1269" type="curve" smooth="yes"/>
      <point x="876" y="1449"/>
      <point x="762" y="1582"/>
      <point x="579" y="1582" type="curve" smooth="yes"/>
      <point x="399" y="1582"/>
      <point x="283" y="1441"/>
      <point x="283" y="1267" type="curve" smooth="yes"/>
      <point x="283" y="1092"/>
      <point x="398" y="951"/>
      <point x="579" y="951" type="curve" smooth="yes"/>
      <point x="760" y="951"/>
      <point x="876" y="1094"/>
    </contour>
  </outline>
</glyph>
<glyph name="brokenbar" format="1">
  <advance width="530"/>
  <unicode hex="00A6"/>
  <outline>
    <contour>
      <point x="122" y="1761" type="line"/>
      <point x="275" y="1761" type="line"/>
      <point x="275" y="931" type="line"/>
      <point x="122" y="931" type="line"/>
    </contour>
    <contour>
      <point x="122" y="724" type="line"/>
      <point x="275" y="724" type="line"/>
      <point x="275" y="-84" type="line"/>
      <point x="122" y="-84" type="line"/>
    </contour>
  </outline>
</glyph>
<glyph name="section" format="1">
  <advance width="764.613979792"/>
  <unicode hex="00A7"/>
  <outline>
    <contour>
      <point x="547" y="1327" type="line" smooth="yes"/>
      <point x="547" y="1535"/>
      <point x="526" y="1658"/>
      <point x="415" y="1658" type="curve" smooth="yes"/>
      <point x="343" y="1658"/>
      <point x="265" y="1641"/>
      <point x="263" y="1502" type="curve" smooth="yes"/>
      <point x="261" y="1359"/>
      <point x="304" y="1318"/>
      <point x="433" y="1160" type="curve" smooth="yes"/>
      <point x="530" y="1041"/>
      <point x="637" y="939"/>
      <point x="637" y="766" type="curve" smooth="yes"/>
      <point x="637" y="713"/>
      <point x="616" y="658"/>
      <point x="591" y="600" type="curve"/>
      <point x="654" y="520"/>
      <point x="688" y="409"/>
      <point x="696" y="325" type="curve" smooth="yes"/>
      <point x="716" y="121"/>
      <point x="621" y="-22"/>
      <point x="419" y="-20" type="curve" smooth="yes"/>
      <point x="210" y="-18"/>
      <point x="129" y="98"/>
      <point x="129" y="397" type="curve" smooth="yes"/>
      <point x="129" y="526" type="line"/>
      <point x="266" y="526" type="line"/>
      <point x="266" y="409" type="line" smooth="yes"/>
      <point x="266" y="206"/>
      <point x="302" y="114"/>
      <point x="397" y="104" type="curve" smooth="yes"/>
      <point x="496" y="94"/>
      <point x="571" y="139"/>
      <point x="564" y="310" type="curve" smooth="yes"/>
      <point x="551" y="613"/>
      <point x="126" y="764"/>
      <point x="126" y="1015" type="curve" smooth="yes"/>
      <point x="126" y="1077"/>
      <point x="131" y="1163"/>
      <point x="208" y="1236" type="curve"/>
      <point x="152" y="1328"/>
      <point x="130" y="1399"/>
      <point x="127" y="1475" type="curve" smooth="yes"/>
      <point x="118" y="1696"/>
      <point x="233" y="1782"/>
      <point x="407" y="1782" type="curve" smooth="yes"/>
      <point x="611" y="1782"/>
      <point x="680" y="1656"/>
      <point x="680" y="1360" type="curve" smooth="yes"/>
      <point x="680" y="1220" type="line"/>
      <point x="547" y="1220" type="line"/>
    </contour>
    <contour>
      <point x="512" y="681" type="curve"/>
      <point x="517" y="697"/>
      <point x="518" y="757"/>
      <point x="519" y="759" type="curve" smooth="yes"/>
      <point x="519" y="888"/>
      <point x="453" y="926"/>
      <point x="270" y="1152" type="curve"/>
      <point x="243" y="1113"/>
      <point x="239" y="1082"/>
      <point x="241" y="1040" type="curve" smooth="yes"/>
      <point x="247" y="918"/>
      <point x="392" y="811"/>
    </contour>
  </outline>
</glyph>
<glyph name="copyright" format="1">
  <advance width="1466"/>
  <unicode hex="00A9"/>
  <outline>
    <contour>
      <point x="104" y="844" type="curve" smooth="yes"/>
      <point x="104" y="1227"/>
      <point x="360" y="1519"/>
      <point x="733" y="1519" type="curve" smooth="yes"/>
      <point x="1106" y="1519"/>
      <point x="1362" y="1227"/>
      <point x="1362" y="844" type="curve" smooth="yes"/>
      <point x="1362" y="460"/>
      <point x="1106" y="168"/>
      <point x="733" y="168" type="curve" smooth="yes"/>
      <point x="360" y="168"/>
      <point x="104" y="460"/>
    </contour>
    <contour>
      <point x="509" y="1036" type="line" smooth="yes"/>
      <point x="509" y="1209"/>
      <point x="575" y="1299"/>
      <point x="740" y="1299" type="curve" smooth="yes"/>
      <point x="874" y="1299"/>
      <point x="947" y="1225"/>
      <point x="947" y="1097" type="curve" smooth="yes"/>
      <point x="947" y="961" type="line"/>
      <point x="850" y="961" type="line"/>
      <point x="850" y="1044" type="line" smooth="yes"/>
      <point x="850" y="1158"/>
      <point x="825" y="1205"/>
      <point x="734" y="1205" type="curve" smooth="yes"/>
      <point x="637" y="1205"/>
      <point x="616" y="1148"/>
      <point x="616" y="1057" type="curve" smooth="yes"/>
      <point x="616" y="629" type="line" smooth="yes"/>
      <point x="616" y="536"/>
      <point x="646" y="480"/>
      <point x="734" y="480" type="curve" smooth="yes"/>
      <point x="825" y="480"/>
      <point x="850" y="523"/>
      <point x="850" y="629" type="curve" smooth="yes"/>
      <point x="850" y="741" type="line"/>
      <point x="951" y="741" type="line"/>
      <point x="951" y="627" type="line" smooth="yes"/>
      <point x="951" y="477"/>
      <point x="898" y="393"/>
      <point x="736" y="393" type="curve" smooth="yes"/>
      <point x="597" y="393"/>
      <point x="509" y="463"/>
      <point x="509" y="624" type="curve" smooth="yes"/>
    </contour>
    <contour>
      <point x="1289" y="844" type="curve" smooth="yes"/>
      <point x="1289" y="1182"/>
      <point x="1059" y="1451"/>
      <point x="733" y="1451" type="curve" smooth="yes"/>
      <point x="407" y="1451"/>
      <point x="177" y="1182"/>
      <point x="177" y="844" type="curve" smooth="yes"/>
      <point x="177" y="505"/>
      <point x="407" y="236"/>
      <point x="733" y="236" type="curve" smooth="yes"/>
      <point x="1059" y="236"/>
      <point x="1289" y="505"/>
    </contour>
  </outline>
</glyph>
<glyph name="ordfeminine" format="1">
  <advance width="927"/>
  <unicode hex="00AA"/>
  <outline>
    <contour>
      <point x="584" y="558" type="curve"/>
      <point x="584" y="1063" type="line"/>
      <point x="385" y="974"/>
      <point x="352" y="954"/>
      <point x="352" y="799" type="curve" smooth="yes"/>
      <point x="352" y="702" type="line" smooth="yes"/>
      <point x="352" y="540"/>
      <point x="370" y="479"/>
      <point x="447" y="479" type="curve" smooth="yes"/>
      <point x="510" y="479"/>
      <point x="565" y="526"/>
    </contour>
    <contour>
      <point x="247" y="1200" type="line" smooth="yes"/>
      <point x="247" y="1201"/>
      <point x="248" y="1233"/>
      <point x="248" y="1233" type="curve"/>
      <point x="248" y="1426"/>
      <point x="256" y="1608"/>
      <point x="479" y="1608" type="curve" smooth="yes"/>
      <point x="706" y="1608"/>
      <point x="704" y="1453"/>
      <point x="704" y="1173" type="curve" smooth="yes"/>
      <point x="704" y="389" type="line"/>
      <point x="584" y="389" type="line"/>
      <point x="584" y="481" type="line"/>
      <point x="573" y="448"/>
      <point x="524" y="379"/>
      <point x="425" y="379" type="curve" smooth="yes"/>
      <point x="297" y="379"/>
      <point x="234" y="490"/>
      <point x="234" y="692" type="curve" smooth="yes"/>
      <point x="234" y="845" type="line" smooth="yes"/>
      <point x="234" y="1016"/>
      <point x="388" y="1071"/>
      <point x="584" y="1157" type="curve"/>
      <point x="584" y="1249" type="line" smooth="yes"/>
      <point x="584" y="1434"/>
      <point x="579" y="1503"/>
      <point x="480" y="1503" type="curve" smooth="yes"/>
      <point x="378" y="1503"/>
      <point x="368" y="1426"/>
      <point x="368" y="1230" type="curve" smooth="yes"/>
      <point x="368" y="1200" type="line"/>
    </contour>
  </outline>
</glyph>
<glyph name="guillemotleft" format="1">
  <advance width="1304"/>
  <unicode hex="00AB"/>
  <outline>
    <contour>
      <point x="599" y="794" type="line"/>
      <point x="599" y="699" type="line"/>
      <point x="1065" y="414" type="line"/>
      <point x="1065" y="574" type="line"/>
      <point x="753" y="749" type="line"/>
      <point x="1065" y="915" type="line"/>
      <point x="1065" y="1065" type="line"/>
    </contour>
    <contour>
      <point x="76" y="794" type="line"/>
      <point x="76" y="699" type="line"/>
      <point x="542" y="414" type="line"/>
      <point x="542" y="574" type="line"/>
      <point x="230" y="749" type="line"/>
      <point x="542" y="915" type="line"/>
      <point x="542" y="1065" type="line"/>
    </contour>
  </outline>
</glyph>
<glyph name="macron" format="1">
  <advance width="696"/>
  <unicode hex="00AF"/>
  <outline>
    <contour>
      <point x="90" y="43" type="line"/>
      <point x="90" y="-70" type="line"/>
      <point x="585" y="-70" type="line"/>
      <point x="585" y="43" type="line"/>
    </contour>
    <contour>
      <point x="335" y="-11" type="move" name="_center"/>
    </contour>
    <contour>
      <point x="348" y="-150" type="move" name="_top"/>
    </contour>
  </outline>
</glyph>
<glyph name="degree" format="1">
  <advance width="863"/>
  <unicode hex="00B0"/>
  <outline>
    <contour>
      <point x="88" y="1448" type="curve" smooth="yes"/>
      <point x="88" y="1671"/>
      <point x="260" y="1782"/>
      <point x="431" y="1782" type="curve" smooth="yes"/>
      <point x="603" y="1782"/>
      <point x="775" y="1671"/>
      <point x="775" y="1448" type="curve" smooth="yes"/>
      <point x="775" y="1226"/>
      <point x="603" y="1114"/>
      <point x="431" y="1114" type="curve" smooth="yes"/>
      <point x="259" y="1114"/>
      <point x="88" y="1225"/>
    </contour>
    <contour>
      <point x="663" y="1448" type="curve" smooth="yes"/>
      <point x="663" y="1615"/>
      <point x="547" y="1695"/>
      <point x="432" y="1695" type="curve" smooth="yes"/>
      <point x="316" y="1695"/>
      <point x="201" y="1615"/>
      <point x="201" y="1448" type="curve" smooth="yes"/>
      <point x="201" y="1281"/>
      <point x="317" y="1201"/>
      <point x="432" y="1201" type="curve" smooth="yes"/>
      <point x="548" y="1201"/>
      <point x="663" y="1281"/>
    </contour>
  </outline>
</glyph>
<glyph name="plusminus" format="1">
  <advance width="854"/>
  <unicode hex="00B1"/>
  <outline>
    <contour>
      <point x="368" y="1185" type="line"/>
      <point x="486" y="1185" type="line"/>
      <point x="486" y="926" type="line"/>
      <point x="720" y="926" type="line"/>
      <point x="720" y="820" type="line"/>
      <point x="486" y="820" type="line"/>
      <point x="486" y="554" type="line"/>
      <point x="368" y="554" type="line"/>
      <point x="368" y="820" type="line"/>
      <point x="138" y="820" type="line"/>
      <point x="138" y="926" type="line"/>
      <point x="368" y="926" type="line"/>
    </contour>
    <contour>
      <point x="173" y="377" type="line"/>
      <point x="689" y="377" type="line"/>
      <point x="689" y="259" type="line"/>
      <point x="173" y="259" type="line"/>
    </contour>
  </outline>
</glyph>
<glyph name="uni00B2" format="1">
  <advance width="861"/>
  <unicode hex="00B2"/>
  <outline>
    <contour>
      <point x="260" y="1314" type="line"/>
      <point x="260" y="1603"/>
      <point x="266" y="1778"/>
      <point x="488" y="1778" type="curve" smooth="yes"/>
      <point x="653" y="1778"/>
      <point x="670" y="1575"/>
      <point x="670" y="1406" type="curve" smooth="yes"/>
      <point x="670" y="1047"/>
      <point x="408" y="853"/>
      <point x="375" y="498" type="curve"/>
      <point x="651" y="498" type="line"/>
      <point x="651" y="420" type="line"/>
      <point x="264" y="420" type="line"/>
      <point x="264" y="492" type="line" smooth="yes"/>
      <point x="264" y="572"/>
      <point x="522" y="1153"/>
      <point x="507" y="1135" type="curve"/>
      <point x="537" y="1200"/>
      <point x="560" y="1330"/>
      <point x="560" y="1422" type="curve" smooth="yes"/>
      <point x="560" y="1645"/>
      <point x="520" y="1681"/>
      <point x="471" y="1681" type="curve" smooth="yes"/>
      <point x="421" y="1681"/>
      <point x="375" y="1647"/>
      <point x="375" y="1410" type="curve" smooth="yes"/>
      <point x="375" y="1232" type="line"/>
      <point x="259" y="1232" type="line"/>
    </contour>
  </outline>
</glyph>
<glyph name="acute" format="1">
  <advance width="650"/>
  <unicode hex="00B4"/>
  <outline>
    <contour>
      <point x="100" y="1989" type="line"/>
      <point x="498" y="2147" type="line"/>
      <point x="498" y="2003" type="line"/>
      <point x="100" y="1920" type="line"/>
    </contour>
  </outline>
</glyph>
<glyph name="paragraph" format="1">
  <advance width="989"/>
  <unicode hex="00B6"/>
  <outline>
    <contour>
      <point x="580" y="1760" type="curve" smooth="yes"/>
      <point x="823" y="1760" type="line"/>
      <point x="823" y="0" type="line"/>
      <point x="703" y="0" type="line"/>
      <point x="703" y="1620" type="line"/>
      <point x="550" y="1620" type="line"/>
      <point x="550" y="0" type="line"/>
      <point x="430" y="0" type="line"/>
      <point x="430" y="1180" type="line"/>
      <point x="225" y="1203"/>
      <point x="123" y="1327"/>
      <point x="123" y="1454" type="curve" smooth="yes"/>
      <point x="123" y="1612"/>
      <point x="177" y="1760"/>
    </contour>
  </outline>
</glyph>
<glyph name="periodcentered" format="1">
  <advance width="480"/>
  <unicode hex="00B7"/>
  <outline>
    <contour>
      <point x="163" y="961" type="line"/>
      <point x="333" y="961" type="line"/>
      <point x="333" y="786" type="line"/>
      <point x="163" y="786" type="line"/>
    </contour>
  </outline>
</glyph>
<glyph name="uni00B9" format="1">
  <advance width="626"/>
  <unicode hex="00B9"/>
  <outline>
    <contour>
      <point x="309" y="1759" type="curve"/>
      <point x="377" y="1759" type="line"/>
      <point x="377" y="414" type="line"/>
      <point x="266" y="414" type="line"/>
      <point x="266" y="1585" type="line"/>
      <point x="232" y="1540"/>
      <point x="158" y="1517"/>
      <point x="103" y="1517" type="curve"/>
      <point x="103" y="1591" type="line"/>
      <point x="182" y="1603"/>
      <point x="263" y="1657"/>
    </contour>
  </outline>
</glyph>
<glyph name="ordmasculine" format="1">
  <advance width="908"/>
  <unicode hex="00BA"/>
  <outline>
    <contour>
      <point x="239" y="1205" type="line" smooth="yes"/>
      <point x="239" y="1432"/>
      <point x="262" y="1607"/>
      <point x="477" y="1607" type="curve" smooth="yes"/>
      <point x="691" y="1607"/>
      <point x="710" y="1433"/>
      <point x="710" y="1205" type="curve" smooth="yes"/>
      <point x="710" y="801" type="line" smooth="yes"/>
      <point x="710" y="556"/>
      <point x="701" y="374"/>
      <point x="477" y="374" type="curve" smooth="yes"/>
      <point x="254" y="374"/>
      <point x="239" y="552"/>
      <point x="239" y="801" type="curve" smooth="yes"/>
    </contour>
    <contour>
      <point x="590" y="1234" type="line" smooth="yes"/>
      <point x="590" y="1392"/>
      <point x="577" y="1502"/>
      <point x="477" y="1502" type="curve" smooth="yes"/>
      <point x="369" y="1502"/>
      <point x="358" y="1392"/>
      <point x="358" y="1234" type="curve" smooth="yes"/>
      <point x="358" y="760" type="line" smooth="yes"/>
      <point x="358" y="591"/>
      <point x="368" y="478"/>
      <point x="477" y="478" type="curve" smooth="yes"/>
      <point x="578" y="478"/>
      <point x="590" y="592"/>
      <point x="590" y="760" type="curve" smooth="yes"/>
    </contour>
  </outline>
</glyph>
<glyph name="onequarter" format="1">
  <advance width="1535"/>
  <unicode hex="00BC"/>
  <outline>
    <contour>
      <point x="948" y="1782" type="line"/>
      <point x="1068" y="1782" type="line"/>
      <point x="607" y="0" type="line"/>
      <point x="489" y="0" type="line"/>
    </contour>
    <contour>
      <point x="312" y="1782" type="curve"/>
      <point x="383" y="1782" type="line"/>
      <point x="383" y="424" type="line"/>
      <point x="267" y="424" type="line"/>
      <point x="267" y="1605" type="line"/>
      <point x="232" y="1560"/>
      <point x="157" y="1537"/>
      <point x="100" y="1537" type="curve"/>
      <point x="100" y="1612" type="line"/>
      <point x="182" y="1625"/>
      <point x="266" y="1679"/>
    </contour>
    <contour>
      <point x="1190" y="326" type="line"/>
      <point x="1190" y="989" type="line"/>
      <point x="1007" y="326" type="line"/>
    </contour>
    <contour>
      <point x="1189" y="1224" type="line"/>
      <point x="1284" y="1224" type="line"/>
      <point x="1284" y="326" type="line"/>
      <point x="1393" y="326" type="line"/>
      <point x="1393" y="244" type="line"/>
      <point x="1284" y="244" type="line"/>
      <point x="1284" y="0" type="line"/>
      <point x="1190" y="0" type="line"/>
      <point x="1190" y="244" type="line"/>
      <point x="916" y="244" type="line"/>
      <point x="911" y="314" type="line"/>
    </contour>
  </outline>
</glyph>
<glyph name="onehalf" format="1">
  <advance width="1620"/>
  <unicode hex="00BD"/>
  <outline>
    <contour>
      <point x="948" y="1768" type="line"/>
      <point x="1068" y="1768" type="line"/>
      <point x="607" y="0" type="line"/>
      <point x="489" y="0" type="line"/>
    </contour>
    <contour>
      <point x="312" y="1774" type="curve"/>
      <point x="383" y="1774" type="line"/>
      <point x="383" y="416" type="line"/>
      <point x="267" y="416" type="line"/>
      <point x="267" y="1597" type="line"/>
      <point x="232" y="1552"/>
      <point x="157" y="1529"/>
      <point x="100" y="1529" type="curve"/>
      <point x="100" y="1604" type="line"/>
      <point x="182" y="1617"/>
      <point x="266" y="1671"/>
    </contour>
    <contour>
      <point x="1127" y="904" type="line" smooth="yes"/>
      <point x="1127" y="1196"/>
      <point x="1134" y="1372"/>
      <point x="1358" y="1372" type="curve" smooth="yes"/>
      <point x="1525" y="1372"/>
      <point x="1543" y="1168"/>
      <point x="1543" y="997" type="curve" smooth="yes"/>
      <point x="1543" y="635"/>
      <point x="1279" y="439"/>
      <point x="1245" y="82" type="curve"/>
      <point x="1523" y="82" type="line"/>
      <point x="1523" y="1" type="line"/>
      <point x="1131" y="1" type="line"/>
      <point x="1131" y="74" type="line" smooth="yes"/>
      <point x="1131" y="157"/>
      <point x="1391" y="740"/>
      <point x="1377" y="724" type="curve"/>
      <point x="1408" y="789"/>
      <point x="1431" y="920"/>
      <point x="1431" y="1013" type="curve" smooth="yes"/>
      <point x="1431" y="1236"/>
      <point x="1391" y="1273"/>
      <point x="1341" y="1273" type="curve" smooth="yes"/>
      <point x="1290" y="1273"/>
      <point x="1244" y="1238"/>
      <point x="1244" y="1001" type="curve" smooth="yes"/>
      <point x="1244" y="821" type="line"/>
      <point x="1127" y="821" type="line"/>
    </contour>
  </outline>
</glyph>
<glyph name="threequarters" format="1">
  <advance width="1555"/>
  <unicode hex="00BE"/>
  <outline>
    <contour>
      <point x="1013" y="1768" type="line"/>
      <point x="1133" y="1768" type="line"/>
      <point x="673" y="0" type="line"/>
      <point x="554" y="0" type="line"/>
    </contour>
    <contour>
      <point x="156" y="1481" type="line" smooth="yes"/>
      <point x="156" y="1690"/>
      <point x="208" y="1800"/>
      <point x="364" y="1800" type="curve" smooth="yes"/>
      <point x="520" y="1800"/>
      <point x="583" y="1691"/>
      <point x="583" y="1481" type="curve" smooth="yes"/>
      <point x="583" y="1341"/>
      <point x="549" y="1232"/>
      <point x="461" y="1199" type="curve"/>
      <point x="547" y="1160"/>
      <point x="585" y="1025"/>
      <point x="585" y="890" type="curve" smooth="yes"/>
      <point x="585" y="660"/>
      <point x="518" y="551"/>
      <point x="363" y="551" type="curve" smooth="yes"/>
      <point x="207" y="551"/>
      <point x="152" y="662"/>
      <point x="152" y="893" type="curve" smooth="yes"/>
      <point x="152" y="924" type="line"/>
      <point x="257" y="924" type="line"/>
      <point x="257" y="893" type="line" smooth="yes"/>
      <point x="257" y="694"/>
      <point x="272" y="638"/>
      <point x="364" y="638" type="curve" smooth="yes"/>
      <point x="455" y="638"/>
      <point x="480" y="704"/>
      <point x="480" y="892" type="curve" smooth="yes"/>
      <point x="480" y="1100"/>
      <point x="437" y="1157"/>
      <point x="334" y="1157" type="curve" smooth="yes"/>
      <point x="303" y="1157" type="line"/>
      <point x="303" y="1244" type="line"/>
      <point x="334" y="1244" type="line" smooth="yes"/>
      <point x="435" y="1244"/>
      <point x="478" y="1271"/>
      <point x="478" y="1482" type="curve" smooth="yes"/>
      <point x="478" y="1680"/>
      <point x="426" y="1711"/>
      <point x="362" y="1711" type="curve" smooth="yes"/>
      <point x="301" y="1711"/>
      <point x="261" y="1671"/>
      <point x="261" y="1480" type="curve" smooth="yes"/>
      <point x="261" y="1457" type="line"/>
      <point x="156" y="1457" type="line"/>
    </contour>
    <contour>
      <point x="1208" y="326" type="line"/>
      <point x="1208" y="989" type="line"/>
      <point x="1027" y="326" type="line"/>
    </contour>
    <contour>
      <point x="1212" y="1224" type="line"/>
      <point x="1304" y="1224" type="line"/>
      <point x="1304" y="326" type="line"/>
      <point x="1413" y="326" type="line"/>
      <point x="1413" y="244" type="line"/>
      <point x="1304" y="244" type="line"/>
      <point x="1304" y="0" type="line"/>
      <point x="1208" y="0" type="line"/>
      <point x="1208" y="244" type="line"/>
      <point x="936" y="244" type="line"/>
      <point x="936" y="314" type="line"/>
    </contour>
  </outline>
</glyph>
<glyph name="AE" format="1">
  <advance width="1124"/>
  <unicode hex="00C6"/>
  <outline>
    <contour>
      <point x="446" y="1760" type="line"/>
      <point x="1038" y="1760" type="line"/>
      <point x="1038" y="1644" type="line"/>
      <point x="713" y="1644" type="line"/>
      <point x="713" y="956" type="line"/>
      <point x="1019" y="956" type="line"/>
      <point x="1019" y="836" type="line"/>
      <point x="713" y="836" type="line"/>
      <point x="713" y="118" type="line"/>
      <point x="1035" y="118" type="line"/>
      <point x="1035" y="0" type="line"/>
      <point x="564" y="0" type="line"/>
      <point x="564" y="357" type="line"/>
      <point x="272" y="357" type="line"/>
      <point x="196" y="0" type="line"/>
      <point x="56" y="0" type="line"/>
    </contour>
    <contour>
      <point x="564" y="483" type="line"/>
      <point x="564" y="1646" type="line"/>
      <point x="546" y="1645" type="line"/>
      <point x="301" y="483" type="line"/>
    </contour>
  </outline>
</glyph>
<glyph name="multiply" format="1">
  <advance width="710"/>
  <unicode hex="00D7"/>
  <outline>
    <contour>
      <point x="542.5" y="936" type="line"/>
      <point x="625.5" y="852" type="line"/>
      <point x="438.5" y="665" type="line"/>
      <point x="625.5" y="478" type="line"/>
      <point x="542.5" y="394" type="line"/>
      <point x="355" y="581.5" type="line"/>
      <point x="167.5" y="394" type="line"/>
      <point x="84.5" y="478" type="line"/>
      <point x="271.5" y="665" type="line"/>
      <point x="84.5" y="852" type="line"/>
      <point x="167.5" y="936" type="line"/>
      <point x="355" y="748.5" type="line"/>
    </contour>
  </outline>
</glyph>
<glyph name="Oslash" format="1">
  <advance width="891"/>
  <unicode hex="00D8"/>
  <outline>
    <contour>
      <point x="197" y="-206" type="line"/>
      <point x="666" y="1956" type="line"/>
      <point x="733" y="1941" type="line"/>
      <point x="256" y="-225" type="line"/>
    </contour>
    <component base="O"/>
  </outline>
</glyph>
<glyph name="Thorn" format="1">
  <advance width="876"/>
  <unicode hex="00DE"/>
  <outline>
    <contour>
      <point x="177" y="1760" type="line"/>
      <point x="326" y="1760" type="line"/>
      <point x="326" y="1501" type="line"/>
      <point x="483" y="1501" type="line" smooth="yes"/>
      <point x="765" y="1501"/>
      <point x="789" y="1291"/>
      <point x="788" y="993" type="curve"/>
      <point x="788" y="973" type="line" smooth="yes"/>
      <point x="788" y="606"/>
      <point x="729" y="434"/>
      <point x="474" y="434" type="curve" smooth="yes"/>
      <point x="326" y="434" type="line"/>
      <point x="326" y="0" type="line"/>
      <point x="177" y="0" type="line"/>
    </contour>
    <contour>
      <point x="640" y="1008" type="line" smooth="yes"/>
      <point x="640" y="1264"/>
      <point x="615" y="1377"/>
      <point x="491" y="1377" type="curve" smooth="yes"/>
      <point x="326" y="1377" type="line"/>
      <point x="326" y="560" type="line"/>
      <point x="485" y="560" type="line" smooth="yes"/>
      <point x="609" y="560"/>
      <point x="640" y="657"/>
      <point x="640" y="972" type="curve" smooth="yes"/>
    </contour>
  </outline>
</glyph>
<glyph name="germandbls" format="1">
  <advance width="933"/>
  <unicode hex="00DF"/>
  <outline>
    <contour>
      <point x="157" y="1417" type="line" smooth="yes"/>
      <point x="157" y="1660"/>
      <point x="161" y="1781"/>
      <point x="444" y="1781" type="curve" smooth="yes"/>
      <point x="712" y="1781"/>
      <point x="775" y="1700"/>
      <point x="775" y="1417" type="curve" smooth="yes"/>
      <point x="775" y="1220" type="line" smooth="yes"/>
      <point x="775" y="1047"/>
      <point x="737" y="988"/>
      <point x="606" y="945" type="curve"/>
      <point x="782" y="903"/>
      <point x="835" y="819"/>
      <point x="835" y="553" type="curve" smooth="yes"/>
      <point x="835" y="476" type="line" smooth="yes"/>
      <point x="835" y="177"/>
      <point x="822" y="0"/>
      <point x="522" y="0" type="curve" smooth="yes"/>
      <point x="418" y="0" type="line"/>
      <point x="418" y="100" type="line"/>
      <point x="660" y="100"/>
      <point x="687" y="155"/>
      <point x="687" y="395" type="curve" smooth="yes"/>
      <point x="687" y="656" type="line" smooth="yes"/>
      <point x="687" y="821"/>
      <point x="628" y="889"/>
      <point x="427" y="889" type="curve"/>
      <point x="427" y="997" type="line"/>
      <point x="578" y="997"/>
      <point x="632" y="1042"/>
      <point x="632" y="1170" type="curve" smooth="yes"/>
      <point x="632" y="1500" type="line" smooth="yes"/>
      <point x="632" y="1646"/>
      <point x="593" y="1687"/>
      <point x="457" y="1687" type="curve" smooth="yes"/>
      <point x="343" y="1687"/>
      <point x="304" y="1646"/>
      <point x="304" y="1500" type="curve" smooth="yes"/>
      <point x="304" y="0" type="line"/>
      <point x="157" y="0" type="line"/>
    </contour>
  </outline>
</glyph>
<glyph name="ae" format="1">
  <advance width="1265"/>
  <unicode hex="00E6"/>
  <outline>
    <contour>
      <point x="655.004" y="1427" type="curve"/>
      <point x="701.004" y="1485"/>
      <point x="771.004" y="1518"/>
      <point x="877.004" y="1518" type="curve" smooth="yes"/>
      <point x="1146" y="1518"/>
      <point x="1149" y="1292"/>
      <point x="1149" y="1002" type="curve"/>
      <point x="1150" y="754" type="line"/>
      <point x="729.004" y="754" type="line"/>
      <point x="729.004" y="443" type="line" smooth="yes"/>
      <point x="729.004" y="220"/>
      <point x="738.004" y="113"/>
      <point x="871.004" y="113" type="curve" smooth="yes"/>
      <point x="993.004" y="113"/>
      <point x="1000" y="231"/>
      <point x="1000" y="439" type="curve" smooth="yes"/>
      <point x="1000" y="556" type="line"/>
      <point x="1145" y="556" type="line"/>
      <point x="1145" y="505" type="line" smooth="yes"/>
      <point x="1145" y="201"/>
      <point x="1145" y="-18"/>
      <point x="868.004" y="-18" type="curve" smooth="yes"/>
      <point x="741.004" y="-18"/>
      <point x="670.004" y="24"/>
      <point x="626.004" y="103" type="curve"/>
      <point x="579.004" y="58"/>
      <point x="465.004" y="-11"/>
      <point x="372.004" y="-11" type="curve" smooth="yes"/>
      <point x="215.004" y="-11"/>
      <point x="144.004" y="128"/>
      <point x="144.004" y="375" type="curve" smooth="yes"/>
      <point x="144.004" y="566" type="line"/>
      <point x="143.004" y="781"/>
      <point x="337.004" y="849"/>
      <point x="580.004" y="956" type="curve"/>
      <point x="580.004" y="1065" type="line" smooth="yes"/>
      <point x="580.004" y="1296"/>
      <point x="577.004" y="1388"/>
      <point x="450.004" y="1388" type="curve" smooth="yes"/>
      <point x="324.004" y="1388"/>
      <point x="312.004" y="1291"/>
      <point x="312.004" y="1047" type="curve" smooth="yes"/>
      <point x="312.004" y="1011" type="line"/>
      <point x="162.004" y="1011" type="line"/>
      <point x="162.004" y="1051" type="line" smooth="yes"/>
      <point x="162.004" y="1292"/>
      <point x="171.004" y="1518"/>
      <point x="450.004" y="1518" type="curve" smooth="yes"/>
      <point x="566.004" y="1518"/>
      <point x="625.004" y="1487"/>
    </contour>
    <contour>
      <point x="580.004" y="211" type="curve"/>
      <point x="580.004" y="840" type="line"/>
      <point x="332.004" y="727"/>
      <point x="292.004" y="702"/>
      <point x="292.004" y="511" type="curve" smooth="yes"/>
      <point x="292.004" y="390" type="line" smooth="yes"/>
      <point x="292.004" y="189"/>
      <point x="314.004" y="112"/>
      <point x="410.004" y="112" type="curve" smooth="yes"/>
      <point x="488.004" y="112"/>
      <point x="557.004" y="170"/>
    </contour>
    <contour>
      <point x="1000" y="1068" type="line" smooth="yes"/>
      <point x="1000" y="1273"/>
      <point x="1003" y="1387"/>
      <point x="877.004" y="1387" type="curve" smooth="yes"/>
      <point x="747.004" y="1387"/>
      <point x="729.004" y="1257"/>
      <point x="729.004" y="1063" type="curve" smooth="yes"/>
      <point x="729.004" y="874" type="line"/>
      <point x="1000" y="874" type="line"/>
    </contour>
  </outline>
</glyph>
<glyph name="eth" format="1">
  <advance width="926"/>
  <unicode hex="00F0"/>
  <outline>
    <contour>
      <point x="295" y="1640" type="curve"/>
      <point x="295" y="1780" type="line"/>
      <point x="452" y="1783"/>
      <point x="591" y="1732"/>
      <point x="680" y="1616" type="curve"/>
      <point x="880" y="1735" type="line"/>
      <point x="933" y="1635" type="line"/>
      <point x="734" y="1516" type="line"/>
      <point x="755" y="1456"/>
      <point x="765" y="926"/>
      <point x="765" y="958" type="curve" smooth="yes"/>
      <point x="765" y="506" type="line" smooth="yes"/>
      <point x="765" y="212"/>
      <point x="706" y="-20"/>
      <point x="433" y="-20" type="curve" smooth="yes"/>
      <point x="179" y="-20"/>
      <point x="113" y="145"/>
      <point x="113" y="442" type="curve" smooth="yes"/>
      <point x="113" y="557" type="line" smooth="yes"/>
      <point x="113" y="959"/>
      <point x="183" y="1114"/>
      <point x="435" y="1103" type="curve" smooth="yes"/>
      <point x="494" y="1101"/>
      <point x="575" y="1070"/>
      <point x="618" y="1009" type="curve"/>
      <point x="618" y="1009"/>
      <point x="610" y="1392"/>
      <point x="598" y="1434" type="curve"/>
      <point x="373" y="1299" type="line"/>
      <point x="320" y="1399" type="line"/>
      <point x="545" y="1534" type="line"/>
      <point x="473" y="1619"/>
      <point x="371" y="1644"/>
    </contour>
    <contour>
      <point x="616" y="926" type="line"/>
      <point x="597" y="930"/>
      <point x="521" y="978"/>
      <point x="427" y="978" type="curve" smooth="yes"/>
      <point x="291" y="978"/>
      <point x="262" y="869"/>
      <point x="262" y="545" type="curve" smooth="yes"/>
      <point x="262" y="446" type="line" smooth="yes"/>
      <point x="262" y="170"/>
      <point x="299" y="107"/>
      <point x="433" y="107" type="curve" smooth="yes"/>
      <point x="583" y="107"/>
      <point x="616" y="227"/>
      <point x="616" y="505" type="curve" smooth="yes"/>
    </contour>
  </outline>
</glyph>
<glyph name="divide" format="1">
  <advance width="804"/>
  <unicode hex="00F7"/>
  <outline>
    <contour>
      <point x="94" y="823" type="line"/>
      <point x="94" y="708" type="line"/>
      <point x="710" y="708" type="line"/>
      <point x="710" y="823" type="line"/>
    </contour>
    <contour>
      <point x="303" y="535" type="line"/>
      <point x="303" y="327" type="line"/>
      <point x="501" y="327" type="line"/>
      <point x="501" y="535" type="line"/>
    </contour>
    <contour>
      <point x="303" y="1174" type="line"/>
      <point x="303" y="976" type="line"/>
      <point x="501" y="976" type="line"/>
      <point x="501" y="1174" type="line"/>
    </contour>
  </outline>
</glyph>
<glyph name="oslash" format="1">
  <advance width="879"/>
  <unicode hex="00F8"/>
  <outline>
    <component base="o"/>
    <contour>
      <point x="134" y="-145" type="line"/>
      <point x="643" y="1672" type="line"/>
      <point x="744" y="1644" type="line"/>
      <point x="234" y="-173" type="line"/>
    </contour>
  </outline>
</glyph>
<glyph name="thorn" format="1">
  <advance width="882"/>
  <unicode hex="00FE"/>
  <outline>
    <contour>
      <point x="160" y="1783" type="line"/>
      <point x="160" y="-265" type="line"/>
      <point x="310" y="-265" type="line"/>
      <point x="310" y="108" type="line"/>
      <point x="336" y="40"/>
      <point x="399" y="-18"/>
      <point x="470" y="-18" type="curve" smooth="yes"/>
      <point x="694" y="-18"/>
      <point x="747" y="194"/>
      <point x="747" y="475" type="curve" smooth="yes"/>
      <point x="747" y="1013" type="line" smooth="yes"/>
      <point x="747" y="1298"/>
      <point x="715" y="1511"/>
      <point x="509" y="1511" type="curve" smooth="yes"/>
      <point x="431" y="1511"/>
      <point x="351" y="1482"/>
      <point x="310" y="1385" type="curve"/>
      <point x="310" y="1783" type="line"/>
    </contour>
    <contour>
      <point x="586" y="1387"/>
      <point x="597" y="1260"/>
      <point x="597" y="1062" type="curve" smooth="yes"/>
      <point x="597" y="468" type="line" smooth="yes"/>
      <point x="597" y="214"/>
      <point x="571" y="116"/>
      <point x="461" y="115" type="curve" smooth="yes"/>
      <point x="336" y="115"/>
      <point x="310" y="222"/>
      <point x="310" y="463" type="curve" smooth="yes"/>
      <point x="310" y="1059" type="line" smooth="yes"/>
      <point x="310" y="1351"/>
      <point x="370" y="1387"/>
      <point x="468" y="1387" type="curve" smooth="yes"/>
    </contour>
  </outline>
</glyph>
<glyph name="Hbar" format="1">
  <advance width="932"/>
  <unicode hex="0126"/>
  <outline>
    <component base="H"/>
    <contour>
      <point x="55" y="1498" type="line"/>
      <point x="900" y="1498" type="line"/>
      <point x="900" y="1416" type="line"/>
      <point x="55" y="1416" type="line"/>
    </contour>
  </outline>
</glyph>
<glyph name="hbar" format="1">
  <advance width="924"/>
  <unicode hex="0127"/>
  <outline>
    <contour>
      <point x="0" y="1682" type="line"/>
      <point x="0" y="1561" type="line"/>
      <point x="465" y="1561" type="line"/>
      <point x="465" y="1682" type="line"/>
    </contour>
    <component base="h"/>
  </outline>
</glyph>
<glyph name="Lcaron" format="1">
  <advance width="708"/>
  <unicode hex="013D"/>
  <outline>
    <component base="L"/>
    <contour>
      <point x="589" y="1764" type="line"/>
      <point x="787" y="1764" type="line"/>
      <point x="787" y="1580" type="line"/>
      <point x="708" y="1298" type="line"/>
      <point x="647" y="1298" type="line"/>
      <point x="689" y="1571" type="line"/>
      <point x="589" y="1571" type="line"/>
    </contour>
  </outline>
</glyph>
<glyph name="lslash" format="1">
  <advance width="731"/>
  <unicode hex="0142"/>
  <outline>
    <contour>
      <point x="99" y="921" type="line"/>
      <point x="99" y="778" type="line"/>
      <point x="610" y="1010" type="line"/>
      <point x="610" y="1153" type="line"/>
    </contour>
    <component base="l" xOffset="94"/>
  </outline>
</glyph>
<glyph name="florin" format="1">
  <advance width="687"/>
  <unicode hex="0192"/>
  <outline>
    <contour>
      <point x="282" y="1563" type="line" smooth="yes"/>
      <point x="282" y="1784"/>
      <point x="418" y="1795"/>
      <point x="618" y="1776" type="curve"/>
      <point x="618" y="1673" type="line"/>
      <point x="482" y="1682"/>
      <point x="419" y="1694"/>
      <point x="419" y="1560" type="curve" smooth="yes"/>
      <point x="419" y="1044" type="line"/>
      <point x="635" y="1044" type="line"/>
      <point x="635" y="940" type="line"/>
      <point x="419" y="940" type="line"/>
      <point x="419" y="63" type="line" smooth="yes"/>
      <point x="419" y="-131"/>
      <point x="301" y="-171"/>
      <point x="81" y="-150" type="curve"/>
      <point x="81" y="-52" type="line"/>
      <point x="260" y="-61"/>
      <point x="282" y="-40"/>
      <point x="282" y="123" type="curve" smooth="yes"/>
      <point x="282" y="940" type="line"/>
      <point x="77" y="940" type="line"/>
      <point x="77" y="1044" type="line"/>
      <point x="282" y="1044" type="line"/>
    </contour>
  </outline>
</glyph>
<glyph name="uni0237" format="1">
  <advance width="513"/>
  <unicode hex="0237"/>
  <outline>
    <contour>
      <point x="203" y="1500" type="line"/>
      <point x="352" y="1500" type="line"/>
      <point x="352" y="34" type="line" smooth="yes"/>
      <point x="352" y="-122"/>
      <point x="261" y="-147"/>
      <point x="229" y="-153" type="curve"/>
      <point x="161" y="-162"/>
      <point x="98" y="-149"/>
      <point x="95" y="-150" type="curve"/>
      <point x="95" y="-42" type="line"/>
      <point x="95" y="-42"/>
      <point x="136" y="-46"/>
      <point x="166" y="-43" type="curve"/>
      <point x="195" y="-38"/>
      <point x="203" y="-13"/>
      <point x="203" y="24" type="curve" smooth="yes"/>
    </contour>
    <contour>
      <point x="95" y="-150" type="line"/>
    </contour>
  </outline>
</glyph>
<glyph name="circumflex" format="1">
  <advance width="970"/>
  <unicode hex="02C6"/>
  <outline>
    <contour>
      <point x="402" y="1831" type="line"/>
      <point x="281" y="1577" type="line"/>
      <point x="399" y="1577" type="line"/>
      <point x="485" y="1752" type="line"/>
      <point x="571" y="1577" type="line"/>
      <point x="688" y="1577" type="line"/>
      <point x="568" y="1831" type="line"/>
    </contour>
    <contour>
      <point x="485" y="1500" type="move" name="_top"/>
    </contour>
  </outline>
</glyph>
<glyph name="dotaccent" format="1">
  <advance width="572"/>
  <unicode hex="02D9"/>
  <outline>
    <contour>
      <point x="213" y="78" type="line"/>
      <point x="213" y="-55" type="line"/>
      <point x="372" y="-55" type="line"/>
      <point x="372" y="78" type="line"/>
    </contour>
    <contour>
      <point x="286" y="-150" type="move" name="_top"/>
    </contour>
  </outline>
</glyph>
<glyph name="ring" format="1">
  <advance width="923"/>
  <unicode hex="02DA"/>
  <outline>
    <contour>
      <point x="292" y="71" type="curve" smooth="yes"/>
      <point x="292" y="145"/>
      <point x="347" y="224"/>
      <point x="461" y="224" type="curve" smooth="yes"/>
      <point x="576" y="224"/>
      <point x="630" y="145"/>
      <point x="630" y="71" type="curve" smooth="yes"/>
      <point x="630" y="-2"/>
      <point x="576" y="-81"/>
      <point x="461" y="-81" type="curve" smooth="yes"/>
      <point x="347" y="-81"/>
      <point x="292" y="-2"/>
    </contour>
    <contour>
      <point x="561" y="72" type="curve" smooth="yes"/>
      <point x="561" y="123"/>
      <point x="528" y="174"/>
      <point x="461" y="174" type="curve" smooth="yes"/>
      <point x="397" y="174"/>
      <point x="364" y="123"/>
      <point x="364" y="72" type="curve" smooth="yes"/>
      <point x="364" y="21"/>
      <point x="397" y="-30"/>
      <point x="461" y="-30" type="curve" smooth="yes"/>
      <point x="528" y="-30"/>
      <point x="561" y="21"/>
    </contour>
  </outline>
</glyph>
<glyph name="ogonek" format="1">
  <advance width="1015"/>
  <unicode hex="02DB"/>
  <outline>
    <contour>
      <point x="667" y="0" type="curve"/>
      <point x="731" y="0" type="line"/>
      <point x="628" y="-88"/>
      <point x="585" y="-184"/>
      <point x="585" y="-252" type="curve" smooth="yes"/>
      <point x="585" y="-321"/>
      <point x="638" y="-339"/>
      <point x="693" y="-339" type="curve" smooth="yes"/>
      <point x="751" y="-339"/>
      <point x="811" y="-320"/>
      <point x="812" y="-318" type="curve" smooth="yes"/>
      <point x="812" y="-411" type="line"/>
      <point x="802" y="-416"/>
      <point x="745" y="-431"/>
      <point x="681" y="-431" type="curve" smooth="yes"/>
      <point x="592" y="-431"/>
      <point x="491" y="-403"/>
      <point x="491" y="-285" type="curve" smooth="yes"/>
      <point x="491" y="-199"/>
      <point x="543" y="-92"/>
    </contour>
    <contour>
      <point x="812" y="-318" type="line"/>
    </contour>
  </outline>
</glyph>
<glyph name="tilde" format="1">
  <advance width="1117"/>
  <unicode hex="02DC"/>
  <outline>
    <contour>
      <point x="266" y="35" type="line"/>
      <point x="305" y="170"/>
      <point x="370" y="170"/>
      <point x="434" y="170" type="curve" smooth="yes"/>
      <point x="515" y="170"/>
      <point x="634" y="96"/>
      <point x="684" y="96" type="curve" smooth="yes"/>
      <point x="688" y="96" type="line"/>
      <point x="707" y="99"/>
      <point x="723" y="107"/>
      <point x="744" y="167" type="curve"/>
      <point x="849" y="139" type="line"/>
      <point x="840" y="113" type="line"/>
      <point x="799" y="-16"/>
      <point x="763" y="-32"/>
      <point x="699" y="-32" type="curve" smooth="yes"/>
      <point x="611" y="-32"/>
      <point x="516" y="50"/>
      <point x="433" y="50" type="curve" smooth="yes"/>
      <point x="425" y="50"/>
      <point x="417" y="50"/>
      <point x="410" y="48" type="curve" smooth="yes"/>
      <point x="388" y="43"/>
      <point x="377" y="24"/>
      <point x="359" y="-11" type="curve"/>
    </contour>
  </outline>
</glyph>
<glyph name="hungarumlaut" format="1">
  <advance width="882"/>
  <unicode hex="02DD"/>
  <outline>
    <contour>
      <point x="449" y="1273" type="line"/>
      <point x="683" y="1782" type="line"/>
      <point x="790" y="1733" type="line"/>
      <point x="517" y="1241" type="line"/>
    </contour>
    <contour>
      <point x="198" y="1281" type="line"/>
      <point x="375" y="1782" type="line"/>
      <point x="479" y="1744" type="line"/>
      <point x="267" y="1252" type="line"/>
    </contour>
  </outline>
</glyph>
<glyph name="uni0307" format="1">
  <advance width="572"/>
  <unicode hex="0307"/>
  <outline>
    <contour>
      <point x="147" y="260" type="line"/>
      <point x="425" y="260" type="line"/>
      <point x="425" y="-8" type="line"/>
      <point x="147" y="-8" type="line"/>
    </contour>
  </outline>
</glyph>
<glyph name="dblgravecmb" format="1">
  <advance width="825"/>
  <unicode hex="030F"/>
  <outline>
    <contour>
      <point x="9" y="1912" type="line"/>
      <point x="144" y="2009" type="line"/>
      <point x="332" y="1684" type="line"/>
      <point x="265" y="1637" type="line"/>
    </contour>
    <contour>
      <point x="312" y="1912" type="line"/>
      <point x="443" y="2009" type="line"/>
      <point x="594" y="1684" type="line"/>
      <point x="527" y="1637" type="line"/>
    </contour>
  </outline>
</glyph>
<glyph name="commaaccentcomb" format="1">
  <advance width="528"/>
  <unicode hex="0326"/>
  <outline>
    <contour>
      <point x="168" y="242" type="line"/>
      <point x="365" y="242" type="line"/>
      <point x="365" y="59" type="line"/>
      <point x="287" y="-223" type="line"/>
      <point x="225" y="-223" type="line"/>
      <point x="268" y="50" type="line"/>
      <point x="168" y="50" type="line"/>
    </contour>
  </outline>
</glyph>
<glyph name="Delta" format="1">
  <advance width="868"/>
  <unicode hex="0394"/>
  <outline>
    <contour>
      <point x="495" y="1760" type="line"/>
      <point x="343" y="1760" type="line"/>
      <point x="60" y="0" type="line"/>
      <point x="808" y="0" type="line"/>
    </contour>
    <contour>
      <point x="219.417" y="123" type="line"/>
      <point x="422" y="1476" type="line"/>
      <point x="424" y="1476" type="line"/>
      <point x="644" y="123" type="line"/>
    </contour>
  </outline>
</glyph>
<glyph name="mu" format="1">
  <advance width="923"/>
  <unicode hex="03BC"/>
  <outline>
    <contour>
      <point x="614" y="1500" type="line"/>
      <point x="614" y="303" type="line" smooth="yes"/>
      <point x="615" y="190"/>
      <point x="552" y="119"/>
      <point x="447" y="119" type="curve" smooth="yes"/>
      <point x="357" y="119"/>
      <point x="300" y="174"/>
      <point x="300" y="292" type="curve" smooth="yes"/>
      <point x="300" y="1500" type="line"/>
      <point x="150" y="1500" type="line"/>
      <point x="150" y="-186" type="line"/>
      <point x="300" y="-186" type="line"/>
      <point x="300" y="-1" type="line"/>
      <point x="330.163" y="-15"/>
      <point x="360.983" y="-20"/>
      <point x="388" y="-20" type="curve" smooth="yes"/>
      <point x="504" y="-20"/>
      <point x="591" y="64.9999"/>
      <point x="615" y="150" type="curve"/>
      <point x="615" y="0" type="line"/>
      <point x="764" y="0" type="line"/>
      <point x="764" y="1500" type="line"/>
    </contour>
  </outline>
</glyph>
<glyph name="endash" format="1">
  <advance width="756"/>
  <unicode hex="2013"/>
  <outline>
    <contour>
      <point x="120" y="741" type="line"/>
      <point x="636" y="741" type="line"/>
      <point x="636" y="626" type="line"/>
      <point x="120" y="626" type="line"/>
    </contour>
  </outline>
</glyph>
<glyph name="emdash" format="1">
  <advance width="1153"/>
  <unicode hex="2014"/>
  <outline>
    <contour>
      <point x="100" y="741" type="line"/>
      <point x="100" y="626" type="line"/>
      <point x="1052" y="626" type="line"/>
      <point x="1052" y="741" type="line"/>
    </contour>
  </outline>
</glyph>
<glyph name="quoteleft" format="1">
  <advance width="597"/>
  <unicode hex="2018"/>
  <outline>
    <contour>
      <point x="281" y="1783" type="line"/>
      <point x="387" y="1783" type="line"/>
      <point x="296" y="1366" type="line"/>
      <point x="438" y="1366" type="line"/>
      <point x="438" y="1164" type="line"/>
      <point x="167" y="1164" type="line"/>
      <point x="167" y="1357" type="line"/>
    </contour>
  </outline>
</glyph>
<glyph name="quotesinglbase" format="1">
  <advance width="484"/>
  <unicode hex="201A"/>
  <outline>
    <contour>
      <point x="113" y="207" type="line"/>
      <point x="388" y="207" type="line"/>
      <point x="388" y="9" type="line"/>
      <point x="269" y="-437" type="line"/>
      <point x="166" y="-437" type="line"/>
      <point x="259" y="0" type="line"/>
      <point x="113" y="0" type="line"/>
    </contour>
  </outline>
</glyph>
<glyph name="quotedblright" format="1">
  <advance width="1077"/>
  <unicode hex="201D"/>
  <outline>
    <contour>
      <point x="638" y="1782" type="line"/>
      <point x="913" y="1782" type="line"/>
      <point x="913" y="1585" type="line"/>
      <point x="793" y="1148" type="line"/>
      <point x="690" y="1148" type="line"/>
      <point x="783" y="1576" type="line"/>
      <point x="638" y="1576" type="line"/>
    </contour>
    <contour>
      <point x="191" y="1782" type="line"/>
      <point x="466" y="1782" type="line"/>
      <point x="466" y="1585" type="line"/>
      <point x="346" y="1148" type="line"/>
      <point x="243" y="1148" type="line"/>
      <point x="337" y="1576" type="line"/>
      <point x="191" y="1576" type="line"/>
    </contour>
  </outline>
</glyph>
<glyph name="daggerdbl" format="1">
  <advance width="927"/>
  <unicode hex="2021"/>
  <outline>
    <contour>
      <point x="818" y="1066" type="line"/>
      <point x="530" y="1066" type="line"/>
      <point x="530" y="612" type="line"/>
      <point x="818" y="612" type="line"/>
      <point x="818" y="496" type="line"/>
      <point x="530" y="496" type="line"/>
      <point x="530" y="0" type="line"/>
      <point x="382" y="0" type="line"/>
      <point x="382" y="496" type="line"/>
      <point x="91" y="496" type="line"/>
      <point x="91" y="612" type="line"/>
      <point x="382" y="612" type="line"/>
      <point x="382" y="1066" type="line"/>
      <point x="91" y="1066" type="line"/>
      <point x="91" y="1182" type="line"/>
      <point x="382" y="1182" type="line"/>
      <point x="382" y="1592" type="line"/>
      <point x="530" y="1592" type="line"/>
      <point x="530" y="1182" type="line"/>
      <point x="818" y="1182" type="line"/>
    </contour>
  </outline>
</glyph>
<glyph name="bullet" format="1">
  <advance width="861"/>
  <unicode hex="2022"/>
  <outline>
    <contour>
      <point x="296" y="969"/>
      <point x="227" y="892"/>
      <point x="227" y="741" type="curve" smooth="yes"/>
      <point x="227" y="590"/>
      <point x="296" y="513"/>
      <point x="430" y="513" type="curve" smooth="yes"/>
      <point x="565" y="513"/>
      <point x="634" y="590"/>
      <point x="634" y="741" type="curve" smooth="yes"/>
      <point x="634" y="892"/>
      <point x="565" y="969"/>
      <point x="430" y="969" type="curve" smooth="yes"/>
    </contour>
  </outline>
</glyph>
<glyph name="perthousand" format="1">
  <advance width="3206"/>
  <unicode hex="2030"/>
  <outline>
    <contour>
      <point x="1372" y="1760" type="line"/>
      <point x="1512" y="1760" type="line"/>
      <point x="790" y="0" type="line"/>
      <point x="642" y="0" type="line"/>
    </contour>
    <contour>
      <point x="601" y="1436" type="line" smooth="yes"/>
      <point x="601" y="1601"/>
      <point x="570" y="1646"/>
      <point x="464" y="1646" type="curve" smooth="yes"/>
      <point x="359" y="1646"/>
      <point x="327" y="1601"/>
      <point x="327" y="1436" type="curve" smooth="yes"/>
      <point x="327" y="936" type="line" smooth="yes"/>
      <point x="327" y="765"/>
      <point x="358" y="718"/>
      <point x="464" y="718" type="curve" smooth="yes"/>
      <point x="571" y="718"/>
      <point x="601" y="765"/>
      <point x="601" y="936" type="curve" smooth="yes"/>
    </contour>
    <contour>
      <point x="180" y="1364" type="line" smooth="yes"/>
      <point x="180" y="1691"/>
      <point x="242" y="1782"/>
      <point x="464" y="1782" type="curve" smooth="yes"/>
      <point x="687" y="1782"/>
      <point x="749" y="1691"/>
      <point x="749" y="1364" type="curve" smooth="yes"/>
      <point x="749" y="1012" type="line" smooth="yes"/>
      <point x="749" y="672"/>
      <point x="688" y="581"/>
      <point x="464" y="581" type="curve" smooth="yes"/>
      <point x="241" y="581"/>
      <point x="180" y="672"/>
      <point x="180" y="1012" type="curve" smooth="yes"/>
    </contour>
    <contour>
      <point x="1424" y="763" type="line" smooth="yes"/>
      <point x="1424" y="1090"/>
      <point x="1486" y="1181"/>
      <point x="1708" y="1181" type="curve" smooth="yes"/>
      <point x="1930" y="1181"/>
      <point x="1992" y="1090"/>
      <point x="1992" y="763" type="curve" smooth="yes"/>
      <point x="1992" y="411" type="line" smooth="yes"/>
      <point x="1992" y="71"/>
      <point x="1932" y="-20"/>
      <point x="1708" y="-20" type="curve" smooth="yes"/>
      <point x="1484" y="-20"/>
      <point x="1424" y="71"/>
      <point x="1424" y="411" type="curve" smooth="yes"/>
    </contour>
    <contour>
      <point x="1845" y="835" type="line" smooth="yes"/>
      <point x="1845" y="1000"/>
      <point x="1813" y="1045"/>
      <point x="1708" y="1045" type="curve" smooth="yes"/>
      <point x="1602" y="1045"/>
      <point x="1571" y="1000"/>
      <point x="1571" y="835" type="curve" smooth="yes"/>
      <point x="1571" y="335" type="line" smooth="yes"/>
      <point x="1571" y="164"/>
      <point x="1602" y="117"/>
      <point x="1708" y="117" type="curve" smooth="yes"/>
      <point x="1814" y="117"/>
      <point x="1845" y="164"/>
      <point x="1845" y="335" type="curve" smooth="yes"/>
    </contour>
    <contour>
      <point x="2232" y="763" type="line" smooth="yes"/>
      <point x="2232" y="1090"/>
      <point x="2294" y="1181"/>
      <point x="2516" y="1181" type="curve" smooth="yes"/>
      <point x="2738" y="1181"/>
      <point x="2800" y="1090"/>
      <point x="2800" y="763" type="curve" smooth="yes"/>
      <point x="2800" y="411" type="line" smooth="yes"/>
      <point x="2800" y="71"/>
      <point x="2740" y="-20"/>
      <point x="2516" y="-20" type="curve" smooth="yes"/>
      <point x="2292" y="-20"/>
      <point x="2232" y="71"/>
      <point x="2232" y="411" type="curve" smooth="yes"/>
    </contour>
    <contour>
      <point x="2653" y="835" type="line" smooth="yes"/>
      <point x="2653" y="1000"/>
      <point x="2622" y="1045"/>
      <point x="2516" y="1045" type="curve" smooth="yes"/>
      <point x="2411" y="1045"/>
      <point x="2379" y="1000"/>
      <point x="2379" y="835" type="curve" smooth="yes"/>
      <point x="2379" y="335" type="line" smooth="yes"/>
      <point x="2379" y="164"/>
      <point x="2410" y="117"/>
      <point x="2516" y="117" type="curve" smooth="yes"/>
      <point x="2622" y="117"/>
      <point x="2653" y="164"/>
      <point x="2653" y="335" type="curve" smooth="yes"/>
    </contour>
  </outline>
</glyph>
<glyph name="guilsinglleft" format="1">
  <advance width="606"/>
  <unicode hex="2039"/>
  <outline>
    <contour>
      <point x="82" y="794" type="line"/>
      <point x="82" y="699" type="line"/>
      <point x="548" y="414" type="line"/>
      <point x="548" y="574" type="line"/>
      <point x="236" y="749" type="line"/>
      <point x="548" y="915" type="line"/>
      <point x="548" y="1065" type="line"/>
    </contour>
  </outline>
</glyph>
<glyph name="uni2074" format="1">
  <advance width="857"/>
  <unicode hex="2074"/>
  <outline>
    <contour>
      <point x="495" y="1760" type="line"/>
      <point x="580" y="1760" type="line"/>
      <point x="580" y="873" type="line"/>
      <point x="688" y="873" type="line"/>
      <point x="688" y="795" type="line"/>
      <point x="580" y="795" type="line"/>
      <point x="580" y="554" type="line"/>
      <point x="489" y="554" type="line"/>
      <point x="489" y="795" type="line"/>
      <point x="224" y="795" type="line"/>
      <point x="224" y="862" type="line"/>
    </contour>
    <contour>
      <point x="489" y="873" type="line"/>
      <point x="489" y="1533" type="line"/>
      <point x="310" y="873" type="line"/>
    </contour>
  </outline>
</glyph>
<glyph name="Euro" format="1">
  <advance width="1076"/>
  <unicode hex="20AC"/>
  <outline>
    <component base="C"/>
    <contour>
      <point x="23" y="1076" type="line"/>
      <point x="508" y="1076" type="line"/>
      <point x="508" y="986" type="line"/>
      <point x="224" y="986" type="line"/>
      <point x="224" y="849" type="line"/>
      <point x="508" y="849" type="line"/>
      <point x="508" y="751" type="line"/>
      <point x="23" y="751" type="line"/>
      <point x="23" y="849" type="line"/>
      <point x="154" y="849" type="line"/>
      <point x="154" y="986" type="line"/>
      <point x="23" y="986" type="line"/>
    </contour>
  </outline>
</glyph>
<glyph name="Euro" format="1">
  <advance width="1076"/>
  <unicode hex="20AC"/>
  <outline>
    <contour>
      <point x="23" y="1076" type="line"/>
      <point x="23" y="986" type="line"/>
      <point x="154" y="986" type="line"/>
      <point x="154" y="849" type="line"/>
      <point x="23" y="849" type="line"/>
      <point x="23" y="751" type="line"/>
      <point x="508" y="751" type="line"/>
      <point x="508" y="849" type="line"/>
      <point x="224" y="849" type="line"/>
      <point x="224" y="986" type="line"/>
      <point x="508" y="986" type="line"/>
      <point x="508" y="1076" type="line"/>
    </contour>
    <component base="C"/>
  </outline>
</glyph>
<glyph name="trademark" format="1">
  <advance width="1407"/>
  <unicode hex="2122"/>
  <outline>
    <contour>
      <point x="1143" y="1761" type="line"/>
      <point x="1274" y="1761" type="line"/>
      <point x="1274" y="447" type="line"/>
      <point x="1179" y="447" type="line"/>
      <point x="1179" y="1005" type="line"/>
      <point x="1195" y="1525" type="line"/>
      <point x="1013" y="447" type="line"/>
      <point x="899" y="447" type="line"/>
      <point x="710" y="1525" type="line"/>
      <point x="727" y="1005" type="line"/>
      <point x="727" y="447" type="line"/>
      <point x="631" y="447" type="line"/>
      <point x="631" y="1761" type="line"/>
      <point x="763" y="1761" type="line"/>
      <point x="956" y="562" type="line"/>
    </contour>
    <contour>
      <point x="123" y="1761" type="line"/>
      <point x="492" y="1761" type="line"/>
      <point x="492" y="1674" type="line"/>
      <point x="369" y="1674" type="line"/>
      <point x="369" y="447" type="line"/>
      <point x="260" y="447" type="line"/>
      <point x="260" y="1674" type="line"/>
      <point x="123" y="1674" type="line"/>
    </contour>
  </outline>
</glyph>
<glyph name="partialdiff" format="1">
  <advance width="961"/>
  <unicode hex="2202"/>
  <outline>
    <contour>
      <point x="201" y="1607" type="line"/>
      <point x="339" y="1651"/>
      <point x="451" y="1673"/>
      <point x="542" y="1673" type="curve" smooth="yes"/>
      <point x="778" y="1673"/>
      <point x="869" y="1525"/>
      <point x="869" y="1227" type="curve" smooth="yes"/>
      <point x="869" y="1139"/>
      <point x="861" y="1039"/>
      <point x="847" y="925" type="curve" smooth="yes"/>
      <point x="783" y="417" type="line" smooth="yes"/>
      <point x="746" y="120"/>
      <point x="581" y="-17"/>
      <point x="421" y="-17" type="curve" smooth="yes"/>
      <point x="185.716" y="-17"/>
      <point x="82.104" y="201.054"/>
      <point x="82.104" y="443.87" type="curve" smooth="yes"/>
      <point x="82.104" y="748.898"/>
      <point x="245.61" y="1093"/>
      <point x="517" y="1093" type="curve" smooth="yes"/>
      <point x="581" y="1093"/>
      <point x="625" y="1079"/>
      <point x="709" y="1047" type="curve"/>
      <point x="715" y="1123"/>
      <point x="721" y="1197"/>
      <point x="721" y="1264" type="curve" smooth="yes"/>
      <point x="721" y="1426"/>
      <point x="684" y="1546"/>
      <point x="507" y="1546" type="curve" smooth="yes"/>
      <point x="437" y="1546"/>
      <point x="345" y="1527"/>
      <point x="225" y="1485" type="curve"/>
    </contour>
    <contour>
      <point x="687" y="919" type="line"/>
      <point x="615" y="947"/>
      <point x="582" y="960"/>
      <point x="531" y="960" type="curve" smooth="yes"/>
      <point x="349.55" y="960"/>
      <point x="247.48" y="673.868"/>
      <point x="247.48" y="435.004" type="curve" smooth="yes"/>
      <point x="247.48" y="263.871"/>
      <point x="299.872" y="117"/>
      <point x="413" y="117" type="curve" smooth="yes"/>
      <point x="503" y="117"/>
      <point x="601" y="217"/>
      <point x="626" y="419" type="curve" smooth="yes"/>
    </contour>
  </outline>
</glyph>
<glyph name="product" format="1">
  <advance width="933"/>
  <unicode hex="220F"/>
  <outline>
    <contour>
      <point x="155" y="1760" type="line"/>
      <point x="778" y="1760" type="line"/>
      <point x="778" y="0" type="line"/>
      <point x="628" y="0" type="line"/>
      <point x="628" y="1649" type="line"/>
      <point x="305" y="1649" type="line"/>
      <point x="305" y="0" type="line"/>
      <point x="155" y="0" type="line"/>
    </contour>
  </outline>
</glyph>
<glyph name="summation" format="1">
  <advance width="681"/>
  <unicode hex="2211"/>
  <outline>
    <contour>
      <point x="102" y="1761" type="line"/>
      <point x="553" y="1761" type="line"/>
      <point x="553" y="1631" type="line"/>
      <point x="265" y="1631" type="line"/>
      <point x="505" y="880" type="line"/>
      <point x="265" y="145" type="line"/>
      <point x="553" y="145" type="line"/>
      <point x="553" y="0" type="line"/>
      <point x="102" y="0" type="line"/>
      <point x="102" y="141" type="line"/>
      <point x="337" y="881" type="line"/>
      <point x="102" y="1605" type="line"/>
    </contour>
  </outline>
</glyph>
<glyph name="minus" format="1">
  <advance width="637"/>
  <unicode hex="2212"/>
  <outline>
    <contour>
      <point x="20" y="741" type="line"/>
      <point x="616" y="741" type="line"/>
      <point x="616" y="626" type="line"/>
      <point x="20" y="626" type="line"/>
    </contour>
  </outline>
</glyph>
<glyph name="uni2215" format="1">
  <advance width="767"/>
  <unicode hex="2215"/>
  <outline>
    <contour>
      <point x="536" y="1782" type="line"/>
      <point x="673" y="1782" type="line"/>
      <point x="231" y="0" type="line"/>
      <point x="94" y="0" type="line"/>
    </contour>
  </outline>
</glyph>
<glyph name="radical" format="1">
  <advance width="1152"/>
  <unicode hex="221A"/>
  <outline>
    <contour>
      <point x="669" y="1500" type="line"/>
      <point x="1122" y="1500" type="line"/>
      <point x="1122" y="1367" type="line"/>
      <point x="808" y="1367" type="line"/>
      <point x="534" y="0" type="line"/>
      <point x="380" y="0" type="line"/>
      <point x="89" y="741" type="line"/>
      <point x="258" y="741" type="line"/>
      <point x="442" y="218" type="line"/>
    </contour>
  </outline>
</glyph>
<glyph name="infinity" format="1">
  <advance width="1300"/>
  <unicode hex="221E"/>
  <outline>
    <contour>
      <point x="838" y="1041"/>
      <point x="729" y="967"/>
      <point x="639" y="855" type="curve"/>
      <point x="546" y="959"/>
      <point x="439" y="1028"/>
      <point x="370" y="1028" type="curve" smooth="yes"/>
      <point x="201" y="1028"/>
      <point x="88" y="914"/>
      <point x="88" y="744" type="curve" smooth="yes"/>
      <point x="88" y="569"/>
      <point x="201" y="452"/>
      <point x="370" y="452" type="curve" smooth="yes"/>
      <point x="445" y="452"/>
      <point x="552" y="517"/>
      <point x="639" y="615" type="curve"/>
      <point x="722" y="509"/>
      <point x="831" y="439"/>
      <point x="912" y="439" type="curve" smooth="yes"/>
      <point x="1086" y="439"/>
      <point x="1202" y="561"/>
      <point x="1202" y="744" type="curve" smooth="yes"/>
      <point x="1202" y="922"/>
      <point x="1086" y="1041"/>
      <point x="912" y="1041" type="curve" smooth="yes"/>
    </contour>
    <contour>
      <point x="442" y="901"/>
      <point x="527" y="837"/>
      <point x="588" y="740" type="curve"/>
      <point x="526" y="643"/>
      <point x="440" y="578"/>
      <point x="374" y="578" type="curve" smooth="yes"/>
      <point x="280" y="578"/>
      <point x="218" y="643"/>
      <point x="218" y="740" type="curve" smooth="yes"/>
      <point x="218" y="837"/>
      <point x="280" y="901"/>
      <point x="374" y="901" type="curve" smooth="yes"/>
    </contour>
    <contour>
      <point x="1008" y="902"/>
      <point x="1074" y="837"/>
      <point x="1074" y="740" type="curve" smooth="yes"/>
      <point x="1074" y="643"/>
      <point x="1008" y="578"/>
      <point x="910" y="578" type="curve" smooth="yes"/>
      <point x="835" y="578"/>
      <point x="744" y="643"/>
      <point x="683" y="740" type="curve"/>
      <point x="750" y="837"/>
      <point x="841" y="902"/>
      <point x="910" y="902" type="curve" smooth="yes"/>
    </contour>
  </outline>
</glyph>
<glyph name="approxequal" format="1">
  <advance width="1117"/>
  <unicode hex="2248"/>
  <outline>
    <contour>
      <point x="825" y="1092"/>
      <point x="792" y="1050"/>
      <point x="746" y="1044" type="curve" smooth="yes"/>
      <point x="682" y="1044"/>
      <point x="450" y="1123"/>
      <point x="346" y="1123" type="curve" smooth="yes"/>
      <point x="258" y="1123"/>
      <point x="184" y="1061"/>
      <point x="132" y="937" type="curve"/>
      <point x="260" y="862" type="line"/>
      <point x="286" y="922"/>
      <point x="320" y="955"/>
      <point x="355" y="955" type="curve" smooth="yes"/>
      <point x="461" y="955"/>
      <point x="659" y="875"/>
      <point x="773" y="875" type="curve" smooth="yes"/>
      <point x="871" y="875"/>
      <point x="942" y="933"/>
      <point x="989" y="1120" type="curve"/>
      <point x="846" y="1162" type="line"/>
    </contour>
    <contour>
      <point x="825" y="689"/>
      <point x="792" y="647"/>
      <point x="746" y="642" type="curve" smooth="yes"/>
      <point x="682" y="642"/>
      <point x="450" y="721"/>
      <point x="346" y="721" type="curve" smooth="yes"/>
      <point x="258" y="721"/>
      <point x="184" y="658"/>
      <point x="132" y="535" type="curve"/>
      <point x="260" y="460" type="line"/>
      <point x="286" y="520"/>
      <point x="320" y="553"/>
      <point x="355" y="553" type="curve" smooth="yes"/>
      <point x="461" y="553"/>
      <point x="659" y="473"/>
      <point x="773" y="473" type="curve" smooth="yes"/>
      <point x="871" y="473"/>
      <point x="942" y="531"/>
      <point x="989" y="718" type="curve"/>
      <point x="846" y="760" type="line"/>
    </contour>
  </outline>
</glyph>
<glyph name="lessequal" format="1">
  <advance width="781"/>
  <unicode hex="2264"/>
  <outline>
    <contour>
      <point x="59" y="813" type="line"/>
      <point x="638" y="1209" type="line"/>
      <point x="638" y="1042" type="line"/>
      <point x="171" y="749" type="line"/>
      <point x="638" y="439" type="line"/>
      <point x="638" y="279" type="line"/>
      <point x="59" y="679" type="line"/>
    </contour>
    <contour>
      <point x="93" y="111" type="line"/>
      <point x="642" y="111" type="line"/>
      <point x="642" y="0" type="line"/>
      <point x="93" y="0" type="line"/>
    </contour>
  </outline>
</glyph>
<glyph name="lozenge" format="1">
  <advance width="921"/>
  <unicode hex="25CA"/>
  <outline>
    <contour>
      <point x="367" y="1762" type="line"/>
      <point x="558" y="1762" type="line"/>
      <point x="807" y="883" type="line"/>
      <point x="558" y="0" type="line"/>
      <point x="367" y="0" type="line"/>
      <point x="114" y="883" type="line"/>
    </contour>
    <contour>
      <point x="659" y="883" type="line"/>
      <point x="465" y="1623" type="line"/>
      <point x="453" y="1623" type="line"/>
      <point x="259" y="883" type="line"/>
      <point x="453" y="129" type="line"/>
      <point x="465" y="129" type="line"/>
    </contour>
  </outline>
</glyph>
<glyph name="uniFB02" format="1">
  <advance width="1080"/>
  <unicode hex="FB02"/>
  <outline>
    <contour>
      <point x="739" y="1790"/>
      <point x="605" y="1811"/>
      <point x="505" y="1811" type="curve" smooth="yes"/>
      <point x="259" y="1811"/>
      <point x="224" y="1686"/>
      <point x="224" y="1512" type="curve" smooth="yes"/>
      <point x="224" y="1442" type="line"/>
      <point x="84" y="1442" type="line"/>
      <point x="84" y="1329" type="line"/>
      <point x="224" y="1329" type="line"/>
      <point x="224" y="0" type="line"/>
      <point x="374" y="0" type="line"/>
      <point x="374" y="1329" type="line"/>
      <point x="573" y="1329" type="line"/>
      <point x="573" y="1442" type="line"/>
      <point x="374" y="1442" type="line"/>
      <point x="374" y="1541" type="line" smooth="yes"/>
      <point x="374" y="1596"/>
      <point x="372" y="1691"/>
      <point x="549" y="1691" type="curve" smooth="yes"/>
      <point x="604" y="1691"/>
      <point x="676" y="1682"/>
      <point x="770" y="1660" type="curve"/>
      <point x="770" y="0" type="line"/>
      <point x="920" y="0" type="line"/>
      <point x="920" y="1744" type="line"/>
    </contour>
  </outline>
</glyph>
<glyph name="uniFB02" format="1">
  <advance width="1080"/>
  <unicode hex="FB02"/>
  <outline>
    <contour>
      <point x="505" y="1811" type="curve" smooth="yes"/>
      <point x="605" y="1811"/>
      <point x="739" y="1790"/>
      <point x="920" y="1744" type="curve"/>
      <point x="920" y="0" type="line"/>
      <point x="770" y="0" type="line"/>
      <point x="770" y="1660" type="line"/>
      <point x="676" y="1682"/>
      <point x="604" y="1691"/>
      <point x="549" y="1691" type="curve" smooth="yes"/>
      <point x="372" y="1691"/>
      <point x="374" y="1596"/>
      <point x="374" y="1541" type="curve" smooth="yes"/>
      <point x="374" y="1442" type="line"/>
      <point x="573" y="1442" type="line"/>
      <point x="573" y="1329" type="line"/>
      <point x="374" y="1329" type="line"/>
      <point x="374" y="0" type="line"/>
      <point x="224" y="0" type="line"/>
      <point x="224" y="1329" type="line"/>
      <point x="84" y="1329" type="line"/>
      <point x="84" y="1442" type="line"/>
      <point x="224" y="1442" type="line"/>
      <point x="224" y="1512" type="line" smooth="yes"/>
      <point x="224" y="1686"/>
      <point x="259" y="1811"/>
    </contour>
  </outline>
</glyph>
<glyph name=".notdef" format="1">
  <advance width="1152"/>
  <outline>
    <contour>
      <point x="166" y="1760" type="line"/>
      <point x="986" y="1760" type="line"/>
      <point x="986" y="0" type="line"/>
      <point x="166" y="0" type="line"/>
    </contour>
    <contour>
      <point x="904" y="72" type="line"/>
      <point x="904" y="1688" type="line"/>
      <point x="248" y="1688" type="line"/>
      <point x="248" y="72" type="line"/>
    </contour>
    <component base="N" xScale="0.582229977004" yScale="0.716242644075" xOffset="291" yOffset="240"/>
  </outline>
</glyph>
<glyph name="uniFB03" format="1">
  <advance width="1694"/>
  <outline>
    <contour>
      <point x="1382" y="1800" type="line"/>
      <point x="1382" y="1615" type="line"/>
      <point x="1532" y="1615" type="line"/>
      <point x="1532" y="1800" type="line"/>
    </contour>
    <contour>
      <point x="984" y="1500" type="line"/>
      <point x="984" y="1541" type="line" smooth="yes"/>
      <point x="984" y="1613"/>
      <point x="991" y="1664"/>
      <point x="1102" y="1664" type="curve" smooth="yes"/>
      <point x="1124" y="1664"/>
      <point x="1151" y="1662"/>
      <point x="1183" y="1657" type="curve"/>
      <point x="1183" y="1778" type="line"/>
      <point x="1180" y="1779"/>
      <point x="1120" y="1796"/>
      <point x="1048" y="1796" type="curve" smooth="yes"/>
      <point x="887" y="1796"/>
      <point x="834" y="1695"/>
      <point x="834" y="1519" type="curve" smooth="yes"/>
      <point x="834" y="1500" type="line"/>
      <point x="374" y="1500" type="line"/>
      <point x="374" y="1541" type="line" smooth="yes"/>
      <point x="374" y="1613"/>
      <point x="381" y="1664"/>
      <point x="492" y="1664" type="curve" smooth="yes"/>
      <point x="514" y="1664"/>
      <point x="541" y="1662"/>
      <point x="573" y="1657" type="curve"/>
      <point x="573" y="1778" type="line"/>
      <point x="570" y="1779"/>
      <point x="510" y="1796"/>
      <point x="438" y="1796" type="curve" smooth="yes"/>
      <point x="277" y="1796"/>
      <point x="224" y="1695"/>
      <point x="224" y="1519" type="curve" smooth="yes"/>
      <point x="224" y="1500" type="line"/>
      <point x="84" y="1500" type="line"/>
      <point x="84" y="1387" type="line"/>
      <point x="224" y="1387" type="line"/>
      <point x="224" y="0" type="line"/>
      <point x="374" y="0" type="line"/>
      <point x="374" y="1387" type="line"/>
      <point x="834" y="1387" type="line"/>
      <point x="834" y="0" type="line"/>
      <point x="984" y="0" type="line"/>
      <point x="984" y="1387" type="line"/>
      <point x="1382" y="1387" type="line"/>
      <point x="1382" y="0" type="line"/>
      <point x="1532" y="0" type="line"/>
      <point x="1532" y="1500" type="line"/>
    </contour>
  </outline>
</glyph>
<glyph name="uniFB04" format="1">
  <advance width="1635"/>
  <outline>
    <contour>
      <point x="779" y="1442" type="line"/>
      <point x="779" y="1512" type="line" smooth="yes"/>
      <point x="779" y="1686"/>
      <point x="814" y="1811"/>
      <point x="1060" y="1811" type="curve" smooth="yes"/>
      <point x="1160" y="1811"/>
      <point x="1294" y="1790"/>
      <point x="1475" y="1744" type="curve"/>
      <point x="1475" y="0" type="line"/>
      <point x="1325" y="0" type="line"/>
      <point x="1325" y="1660" type="line"/>
      <point x="1231" y="1682"/>
      <point x="1159" y="1691"/>
      <point x="1104" y="1691" type="curve" smooth="yes"/>
      <point x="927" y="1691"/>
      <point x="929" y="1596"/>
      <point x="929" y="1541" type="curve" smooth="yes"/>
      <point x="929" y="1442" type="line"/>
      <point x="1128" y="1442" type="line"/>
      <point x="1128" y="1329" type="line"/>
      <point x="929" y="1329" type="line"/>
      <point x="929" y="0" type="line"/>
      <point x="779" y="0" type="line"/>
      <point x="779" y="1329" type="line"/>
      <point x="374" y="1329" type="line"/>
      <point x="374" y="0" type="line"/>
      <point x="224" y="0" type="line"/>
      <point x="224" y="1329" type="line"/>
      <point x="84" y="1329" type="line"/>
      <point x="84" y="1442" type="line"/>
      <point x="224" y="1442" type="line"/>
      <point x="224" y="1512" type="line" smooth="yes"/>
      <point x="224" y="1688"/>
      <point x="277" y="1789"/>
      <point x="438" y="1789" type="curve" smooth="yes"/>
      <point x="510" y="1789"/>
      <point x="570" y="1772"/>
      <point x="573" y="1771" type="curve"/>
      <point x="573" y="1650" type="line"/>
      <point x="541" y="1655"/>
      <point x="514" y="1657"/>
      <point x="492" y="1657" type="curve" smooth="yes"/>
      <point x="381" y="1657"/>
      <point x="374" y="1606"/>
      <point x="374" y="1534" type="curve" smooth="yes"/>
      <point x="374" y="1442" type="line"/>
    </contour>
  </outline>
</glyph>
